G04 #@! TF.FileFunction,Soldermask,Top*
%FSLAX46Y46*%
G04 Gerber Fmt 4.6, Leading zero omitted, Abs format (unit mm)*
G04 Created by KiCad (PCBNEW 4.0.7) date 03/17/18 16:38:50*
%MOMM*%
%LPD*%
G01*
G04 APERTURE LIST*
%ADD10C,0.100000*%
%ADD11C,3.100000*%
%ADD12R,2.000000X2.000000*%
%ADD13C,2.000000*%
%ADD14R,1.650000X1.400000*%
%ADD15R,2.900000X1.400000*%
%ADD16R,1.400000X1.650000*%
%ADD17R,1.300000X1.200000*%
%ADD18R,1.200000X1.300000*%
%ADD19C,1.800000*%
%ADD20O,1.800000X1.800000*%
%ADD21R,2.100000X2.100000*%
%ADD22O,2.100000X2.100000*%
%ADD23R,1.700000X1.100000*%
%ADD24R,1.100000X1.700000*%
%ADD25R,1.400000X3.600000*%
%ADD26R,3.400000X1.900000*%
%ADD27O,3.400000X1.900000*%
%ADD28R,1.290000X0.820000*%
%ADD29R,1.240000X1.340000*%
%ADD30R,1.950000X1.000000*%
%ADD31R,3.400000X3.400000*%
%ADD32C,3.400000*%
%ADD33R,1.800000X0.800000*%
%ADD34C,1.200000*%
%ADD35R,2.300000X2.200000*%
%ADD36R,1.797000X1.543000*%
%ADD37R,2.051000X2.406600*%
G04 APERTURE END LIST*
D10*
D11*
X167640000Y-91440000D03*
X75565000Y-91440000D03*
X75565000Y-63500000D03*
D12*
X162560000Y-81915000D03*
D13*
X162560000Y-83915000D03*
D14*
X158115000Y-81550000D03*
X158115000Y-83550000D03*
D12*
X143510000Y-91440000D03*
D13*
X143510000Y-87940000D03*
D12*
X143510000Y-82550000D03*
D13*
X143510000Y-79050000D03*
D15*
X137160000Y-91035000D03*
X137160000Y-88035000D03*
X137160000Y-82145000D03*
X137160000Y-79145000D03*
D14*
X134620000Y-89900000D03*
X134620000Y-87900000D03*
X134620000Y-82280000D03*
X134620000Y-80280000D03*
X125730000Y-86630000D03*
X125730000Y-88630000D03*
X125730000Y-80375000D03*
X125730000Y-78375000D03*
D15*
X121285000Y-86590000D03*
X121285000Y-83590000D03*
X121285000Y-81510000D03*
X121285000Y-78510000D03*
D14*
X110490000Y-81010000D03*
X110490000Y-79010000D03*
D16*
X105775000Y-88265000D03*
X103775000Y-88265000D03*
D14*
X95250000Y-61865000D03*
X95250000Y-63865000D03*
X95250000Y-65675000D03*
X95250000Y-67675000D03*
X95250000Y-69485000D03*
X95250000Y-71485000D03*
D16*
X102505000Y-62230000D03*
X104505000Y-62230000D03*
D14*
X109220000Y-64500000D03*
X109220000Y-62500000D03*
X107315000Y-64500000D03*
X107315000Y-62500000D03*
X116840000Y-70755000D03*
X116840000Y-72755000D03*
X119380000Y-65040000D03*
X119380000Y-67040000D03*
X130810000Y-61865000D03*
X130810000Y-63865000D03*
X128270000Y-61865000D03*
X128270000Y-63865000D03*
D16*
X122190000Y-73660000D03*
X124190000Y-73660000D03*
D14*
X140335000Y-70755000D03*
X140335000Y-72755000D03*
X142875000Y-65040000D03*
X142875000Y-67040000D03*
X154305000Y-61865000D03*
X154305000Y-63865000D03*
X151765000Y-61865000D03*
X151765000Y-63865000D03*
D16*
X145685000Y-73660000D03*
X147685000Y-73660000D03*
X161020000Y-71755000D03*
X159020000Y-71755000D03*
D17*
X91075000Y-65725000D03*
X91075000Y-67625000D03*
X93075000Y-66675000D03*
X89265000Y-67625000D03*
X89265000Y-65725000D03*
X87265000Y-66675000D03*
D18*
X91120000Y-61865000D03*
X89220000Y-61865000D03*
X90170000Y-63865000D03*
X89220000Y-71485000D03*
X91120000Y-71485000D03*
X90170000Y-69485000D03*
D19*
X158750000Y-78740000D03*
D20*
X163830000Y-78740000D03*
D21*
X114935000Y-83820000D03*
D22*
X112395000Y-83820000D03*
D21*
X85090000Y-85090000D03*
D22*
X87630000Y-85090000D03*
D21*
X87630000Y-81280000D03*
D22*
X85090000Y-81280000D03*
X82550000Y-81280000D03*
D21*
X92075000Y-78105000D03*
D22*
X92075000Y-75565000D03*
D21*
X96520000Y-75565000D03*
D22*
X96520000Y-78105000D03*
D21*
X80010000Y-70485000D03*
D22*
X80010000Y-73025000D03*
X80010000Y-75565000D03*
D21*
X74930000Y-70485000D03*
D22*
X74930000Y-73025000D03*
X74930000Y-75565000D03*
D21*
X100965000Y-74295000D03*
D22*
X103505000Y-74295000D03*
D23*
X123825000Y-86680000D03*
X123825000Y-88580000D03*
X125730000Y-90490000D03*
X125730000Y-92390000D03*
X125730000Y-84135000D03*
X125730000Y-82235000D03*
X123825000Y-80325000D03*
X123825000Y-78425000D03*
X118110000Y-77155000D03*
X118110000Y-79055000D03*
X114935000Y-79060000D03*
X114935000Y-80960000D03*
X112395000Y-88580000D03*
X112395000Y-86680000D03*
X112395000Y-80960000D03*
X112395000Y-79060000D03*
X102235000Y-77790000D03*
X102235000Y-79690000D03*
D24*
X84135000Y-62865000D03*
X82235000Y-62865000D03*
D23*
X80645000Y-64450000D03*
X80645000Y-62550000D03*
X80645000Y-65725000D03*
X80645000Y-67625000D03*
X83185000Y-75245000D03*
X83185000Y-73345000D03*
X85090000Y-73345000D03*
X85090000Y-75245000D03*
X85090000Y-70170000D03*
X85090000Y-72070000D03*
D24*
X87310000Y-62865000D03*
X85410000Y-62865000D03*
D23*
X85090000Y-66995000D03*
X85090000Y-68895000D03*
D24*
X104455000Y-71120000D03*
X102555000Y-71120000D03*
X101280000Y-71120000D03*
X99380000Y-71120000D03*
X108270000Y-73660000D03*
X110170000Y-73660000D03*
D25*
X114225000Y-70485000D03*
X108025000Y-70485000D03*
D23*
X119380000Y-70805000D03*
X119380000Y-72705000D03*
X114300000Y-65090000D03*
X114300000Y-66990000D03*
X116840000Y-65090000D03*
X116840000Y-66990000D03*
X114300000Y-61280000D03*
X114300000Y-63180000D03*
X116840000Y-61280000D03*
X116840000Y-63180000D03*
D25*
X137720000Y-70485000D03*
X131520000Y-70485000D03*
D23*
X142875000Y-70805000D03*
X142875000Y-72705000D03*
X137795000Y-65090000D03*
X137795000Y-66990000D03*
X140335000Y-65090000D03*
X140335000Y-66990000D03*
X137795000Y-61280000D03*
X137795000Y-63180000D03*
X140335000Y-61280000D03*
X140335000Y-63180000D03*
D25*
X161215000Y-68580000D03*
X155015000Y-68580000D03*
D24*
X160970000Y-74295000D03*
X159070000Y-74295000D03*
D26*
X153670000Y-79375000D03*
D27*
X153670000Y-81915000D03*
X153670000Y-86995000D03*
X153670000Y-89535000D03*
X153670000Y-92075000D03*
D28*
X128070000Y-89195000D03*
X128070000Y-89845000D03*
X128070000Y-90495000D03*
X128070000Y-91145000D03*
X132280000Y-91145000D03*
X132280000Y-90495000D03*
X132280000Y-89845000D03*
X132280000Y-89195000D03*
D29*
X130595000Y-90640000D03*
X130595000Y-89700000D03*
X129755000Y-90640000D03*
X129755000Y-89700000D03*
D28*
X128070000Y-79035000D03*
X128070000Y-79685000D03*
X128070000Y-80335000D03*
X128070000Y-80985000D03*
X132280000Y-80985000D03*
X132280000Y-80335000D03*
X132280000Y-79685000D03*
X132280000Y-79035000D03*
D29*
X130595000Y-80480000D03*
X130595000Y-79540000D03*
X129755000Y-80480000D03*
X129755000Y-79540000D03*
D30*
X107475000Y-85725000D03*
X107475000Y-84455000D03*
X107475000Y-83185000D03*
X107475000Y-81915000D03*
X102075000Y-81915000D03*
X102075000Y-83185000D03*
X102075000Y-84455000D03*
X102075000Y-85725000D03*
X98900000Y-64770000D03*
X98900000Y-66040000D03*
X98900000Y-67310000D03*
X98900000Y-68580000D03*
X104300000Y-68580000D03*
X104300000Y-67310000D03*
X104300000Y-66040000D03*
X104300000Y-64770000D03*
X122395000Y-66675000D03*
X122395000Y-67945000D03*
X122395000Y-69215000D03*
X122395000Y-70485000D03*
X127795000Y-70485000D03*
X127795000Y-69215000D03*
X127795000Y-67945000D03*
X127795000Y-66675000D03*
X145890000Y-66675000D03*
X145890000Y-67945000D03*
X145890000Y-69215000D03*
X145890000Y-70485000D03*
X151290000Y-70485000D03*
X151290000Y-69215000D03*
X151290000Y-67945000D03*
X151290000Y-66675000D03*
D31*
X85725000Y-91440000D03*
D32*
X90805000Y-91440000D03*
X95885000Y-91440000D03*
D33*
X167070000Y-78770000D03*
X167070000Y-78120000D03*
X167070000Y-77470000D03*
X167070000Y-76820000D03*
X167070000Y-76170000D03*
D34*
X167570000Y-75570000D03*
X167570000Y-79370000D03*
D35*
X169920000Y-73470000D03*
X169920000Y-76320000D03*
X169920000Y-78620000D03*
X169920000Y-81470000D03*
D21*
X125095000Y-62738000D03*
D22*
X122555000Y-62738000D03*
D21*
X148590000Y-62865000D03*
D22*
X146050000Y-62865000D03*
D21*
X160274000Y-62992000D03*
D22*
X157734000Y-62992000D03*
D11*
X167640000Y-63500000D03*
D36*
X91122500Y-85788500D03*
X97091500Y-83248500D03*
D37*
X91249500Y-83680300D03*
X96964500Y-85356700D03*
M02*
