G04 #@! TF.FileFunction,Soldermask,Bot*
%FSLAX46Y46*%
G04 Gerber Fmt 4.6, Leading zero omitted, Abs format (unit mm)*
G04 Created by KiCad (PCBNEW 4.0.7) date 03/18/18 13:20:54*
%MOMM*%
%LPD*%
G01*
G04 APERTURE LIST*
%ADD10C,0.100000*%
%ADD11C,0.150000*%
%ADD12R,2.100000X2.100000*%
%ADD13O,2.100000X2.100000*%
%ADD14C,3.100000*%
%ADD15R,2.000000X2.000000*%
%ADD16C,2.000000*%
%ADD17R,1.650000X1.400000*%
%ADD18R,1.400000X1.650000*%
%ADD19R,1.250000X1.400000*%
%ADD20R,1.400000X1.250000*%
%ADD21R,1.700000X1.100000*%
%ADD22R,1.100000X1.700000*%
%ADD23R,3.400000X1.900000*%
%ADD24O,3.400000X1.900000*%
%ADD25R,3.400000X3.400000*%
%ADD26C,3.400000*%
%ADD27C,1.200000*%
%ADD28C,1.800000*%
%ADD29O,1.800000X1.800000*%
G04 APERTURE END LIST*
D10*
D11*
X19050000Y-19050000D02*
X19050000Y-54610000D01*
X118745000Y-19050000D02*
X19050000Y-19050000D01*
X118745000Y-54610000D02*
X118745000Y-19050000D01*
X19050000Y-54610000D02*
X118745000Y-54610000D01*
D12*
X60325000Y-38100000D03*
D13*
X57785000Y-38100000D03*
X55245000Y-38100000D03*
D14*
X114935000Y-50800000D03*
X22860000Y-50800000D03*
X22860000Y-22860000D03*
D15*
X109855000Y-41275000D03*
D16*
X109855000Y-43275000D03*
D15*
X90805000Y-50800000D03*
D16*
X90805000Y-47300000D03*
D15*
X90805000Y-41910000D03*
D16*
X90805000Y-38410000D03*
D17*
X41275000Y-30115000D03*
X41275000Y-32115000D03*
X45720000Y-28845000D03*
X45720000Y-30845000D03*
D18*
X35195000Y-27940000D03*
X37195000Y-27940000D03*
D17*
X45720000Y-25035000D03*
X45720000Y-27035000D03*
D18*
X31385000Y-27940000D03*
X33385000Y-27940000D03*
X39640000Y-22860000D03*
X41640000Y-22860000D03*
D19*
X35095000Y-33020000D03*
X30945000Y-33020000D03*
D20*
X36195000Y-25570000D03*
X36195000Y-21420000D03*
D12*
X32385000Y-44450000D03*
D13*
X34925000Y-44450000D03*
D12*
X34925000Y-40640000D03*
D13*
X32385000Y-40640000D03*
X29845000Y-40640000D03*
D12*
X39370000Y-37465000D03*
D13*
X39370000Y-34925000D03*
D12*
X43815000Y-34925000D03*
D13*
X43815000Y-37465000D03*
D12*
X27305000Y-29845000D03*
D13*
X27305000Y-32385000D03*
X27305000Y-34925000D03*
D12*
X22225000Y-29845000D03*
D13*
X22225000Y-32385000D03*
X22225000Y-34925000D03*
D12*
X48260000Y-33655000D03*
D13*
X50800000Y-33655000D03*
D21*
X39370000Y-30165000D03*
X39370000Y-32065000D03*
X43815000Y-28895000D03*
X43815000Y-30795000D03*
D22*
X35245000Y-29845000D03*
X37145000Y-29845000D03*
D21*
X43815000Y-25085000D03*
X43815000Y-26985000D03*
D22*
X31435000Y-29845000D03*
X33335000Y-29845000D03*
X39690000Y-24765000D03*
X41590000Y-24765000D03*
X32700000Y-36195000D03*
X30800000Y-36195000D03*
D21*
X33020000Y-25715000D03*
X33020000Y-23815000D03*
D23*
X100965000Y-38735000D03*
D24*
X100965000Y-41275000D03*
X100965000Y-46355000D03*
X100965000Y-48895000D03*
X100965000Y-51435000D03*
D25*
X33020000Y-50800000D03*
D26*
X38100000Y-50800000D03*
X43180000Y-50800000D03*
D27*
X114865000Y-34930000D03*
X114865000Y-38730000D03*
D12*
X72390000Y-22098000D03*
D13*
X69850000Y-22098000D03*
D12*
X95885000Y-22225000D03*
D13*
X93345000Y-22225000D03*
D12*
X107569000Y-22352000D03*
D13*
X105029000Y-22352000D03*
D14*
X114935000Y-22860000D03*
D28*
X106045000Y-38100000D03*
D29*
X111125000Y-38100000D03*
M02*
