M48
;DRILL file {KiCad 4.0.7} date 03/17/18 16:39:06
;FORMAT={-:-/ absolute / inch / decimal}
FMAT,2
INCH,TZ
T1C0.016
T2C0.028
T3C0.031
T4C0.039
T5C0.060
%
G90
G05
M72
T1
X2.875Y-2.4
X2.875Y-2.55
X2.875Y-2.65
X2.875Y-2.8
X2.875Y-2.95
X2.875Y-3.1
X2.875Y-3.25
X2.875Y-3.4
X2.875Y-3.55
X2.875Y-3.7
X3.Y-2.625
X3.025Y-2.4
X3.025Y-2.95
X3.025Y-3.075
X3.075Y-2.95
X3.095Y-3.045
X3.1Y-2.5
X3.1Y-2.6
X3.1Y-3.25
X3.1Y-3.4
X3.1Y-3.55
X3.1Y-3.7
X3.105Y-2.71
X3.175Y-2.4
X3.25Y-2.55
X3.25Y-2.725
X3.25Y-2.775
X3.25Y-3.4
X3.25Y-3.55
X3.25Y-3.7
X3.325Y-2.4
X3.325Y-2.575
X3.4Y-3.7
X3.425Y-3.475
X3.475Y-2.4
X3.5Y-3.425
X3.5Y-3.5
X3.55Y-3.7
X3.675Y-2.4278
X3.7Y-3.7
X3.725Y-3.175
X3.725Y-3.3
X3.725Y-3.4
X3.76Y-2.87
X3.8Y-3.15
X3.8Y-3.2
X3.83Y-2.9
X3.85Y-2.425
X3.85Y-3.7
X3.875Y-2.95
X3.925Y-3.2
X3.925Y-3.35
X3.925Y-3.5
X3.9254Y-2.7315
X3.95Y-2.4
X3.95Y-3.025
X4.Y-3.45
X4.Y-3.6
X4.Y-3.7
X4.075Y-2.4
X4.1Y-3.025
X4.1Y-3.275
X4.15Y-2.9
X4.15Y-3.6
X4.15Y-3.7
X4.175Y-3.175
X4.21Y-3.015
X4.225Y-2.4
X4.3Y-2.6
X4.3Y-3.325
X4.325Y-2.8
X4.35Y-2.675
X4.375Y-2.4
X4.4Y-2.55
X4.4Y-2.75
X4.4Y-2.9
X4.4Y-3.025
X4.425Y-2.45
X4.475Y-3.575
X4.525Y-2.9
X4.55Y-3.025
X4.55Y-3.55
X4.6Y-3.175
X4.65Y-2.925
X4.65Y-2.975
X4.675Y-3.25
X4.675Y-3.35
X4.715Y-2.4
X4.715Y-2.71
X4.725Y-3.025
X4.725Y-3.55
X4.75Y-2.5
X4.775Y-2.975
X4.875Y-2.975
X4.875Y-3.55
X4.875Y-3.7
X4.8758Y-3.25
X4.9Y-2.65
X4.95Y-2.75
X4.95Y-2.9
X4.975Y-2.975
X5.025Y-2.575
X5.025Y-2.825
X5.025Y-2.925
X5.025Y-3.25
X5.025Y-3.7
X5.055Y-2.385
X5.125Y-2.925
X5.15Y-2.675
X5.175Y-2.575
X5.175Y-3.25
X5.175Y-3.4
X5.175Y-3.7
X5.225Y-2.85
X5.275Y-2.4
X5.275Y-2.55
X5.275Y-2.7
X5.275Y-2.925
X5.3Y-3.3
X5.325Y-3.4
X5.325Y-3.7
X5.35Y-2.4
X5.35Y-2.55
X5.35Y-2.7
X5.35Y-3.
X5.4Y-3.3
X5.475Y-3.4
X5.475Y-3.7
X5.5Y-2.7
X5.5Y-3.
X5.5Y-3.2
X5.5Y-3.3
X5.625Y-2.725
X5.625Y-3.4
X5.625Y-3.4
X5.625Y-3.7
X5.65Y-3.
X5.725Y-3.2
X5.775Y-3.45
X5.775Y-3.55
X5.775Y-3.7
X5.8Y-3.
X5.825Y-2.725
X5.875Y-2.9
X5.875Y-2.975
X5.9209Y-2.4356
X5.925Y-3.45
X5.925Y-3.55
X5.925Y-3.7
X5.95Y-2.575
X5.975Y-2.4
X6.05Y-2.8
X6.05Y-2.925
X6.1Y-2.575
X6.1Y-2.875
X6.2Y-2.825
X6.2Y-2.925
X6.2Y-3.4
X6.2Y-3.5
X6.2Y-3.575
X6.2Y-3.675
X6.25Y-2.4
X6.25Y-2.55
X6.25Y-2.7
X6.4Y-2.55
X6.4Y-2.7
X6.425Y-2.775
X6.425Y-2.925
X6.46Y-2.465
X6.55Y-2.4
X6.55Y-2.7
X6.55Y-2.775
X6.7Y-2.4
X6.7Y-2.55
X6.7Y-2.7
X6.7Y-2.775
T2
X6.25Y-3.1
X6.45Y-3.1
T3
X5.65Y-3.1122
X5.65Y-3.25
X5.65Y-3.4622
X5.65Y-3.6
X6.4Y-3.225
X6.4Y-3.3037
T4
X2.95Y-2.775
X2.95Y-2.875
X2.95Y-2.975
X3.15Y-2.775
X3.15Y-2.875
X3.15Y-2.975
X3.25Y-3.2
X3.35Y-3.2
X3.35Y-3.35
X3.45Y-3.2
X3.45Y-3.35
X3.625Y-2.975
X3.625Y-3.075
X3.8Y-2.975
X3.8Y-3.075
X3.975Y-2.925
X4.075Y-2.925
X4.425Y-3.3
X4.525Y-3.3
X4.825Y-2.47
X4.925Y-2.47
X5.75Y-2.475
X5.85Y-2.475
X6.05Y-3.125
X6.05Y-3.225
X6.05Y-3.425
X6.05Y-3.525
X6.05Y-3.625
X6.21Y-2.48
X6.31Y-2.48
T5
X3.375Y-3.6
X3.575Y-3.6
X3.775Y-3.6
T0
M30
