G04 #@! TF.FileFunction,Copper,L2,Bot,Signal*
%FSLAX46Y46*%
G04 Gerber Fmt 4.6, Leading zero omitted, Abs format (unit mm)*
G04 Created by KiCad (PCBNEW 4.0.7) date 03/18/18 13:51:34*
%MOMM*%
%LPD*%
G01*
G04 APERTURE LIST*
%ADD10C,0.100000*%
%ADD11C,0.150000*%
%ADD12C,0.600000*%
%ADD13R,1.700000X1.700000*%
%ADD14O,1.700000X1.700000*%
%ADD15R,1.600000X1.600000*%
%ADD16C,1.600000*%
%ADD17R,1.250000X1.000000*%
%ADD18R,1.000000X1.250000*%
%ADD19R,0.850000X1.000000*%
%ADD20R,1.000000X0.850000*%
%ADD21R,1.300000X0.700000*%
%ADD22R,0.700000X1.300000*%
%ADD23R,3.000000X1.500000*%
%ADD24O,3.000000X1.500000*%
%ADD25R,3.000000X3.000000*%
%ADD26C,3.000000*%
%ADD27C,1.400000*%
%ADD28O,1.400000X1.400000*%
%ADD29C,0.500000*%
%ADD30C,0.400000*%
%ADD31C,0.300000*%
%ADD32C,0.254000*%
G04 APERTURE END LIST*
D10*
D11*
X19050000Y-19050000D02*
X19050000Y-54610000D01*
X118745000Y-19050000D02*
X19050000Y-19050000D01*
X118745000Y-54610000D02*
X118745000Y-19050000D01*
X19050000Y-54610000D02*
X118745000Y-54610000D01*
D12*
X96520000Y-29210000D03*
X95250000Y-28702000D03*
X64770000Y-47625000D03*
X60960000Y-50165000D03*
X54737000Y-35814000D03*
X57785000Y-40640000D03*
X60960000Y-40640000D03*
X58420000Y-46355000D03*
X54610000Y-47625000D03*
D13*
X60325000Y-38100000D03*
D14*
X57785000Y-38100000D03*
X55245000Y-38100000D03*
D12*
X67056000Y-28194000D03*
X23495000Y-26035000D03*
X26035000Y-22860000D03*
X26035000Y-25400000D03*
X29845000Y-29845000D03*
X26162000Y-28194000D03*
X29845000Y-28575000D03*
X31750000Y-24765000D03*
X29845000Y-24130000D03*
X24130000Y-34290000D03*
X25908000Y-36703000D03*
X24130000Y-37465000D03*
X25400000Y-34290000D03*
X26035000Y-41910000D03*
X29845000Y-49530000D03*
X29845000Y-45720000D03*
X26035000Y-45720000D03*
X26035000Y-49530000D03*
X20320000Y-24130000D03*
X20320000Y-26670000D03*
X20320000Y-30480000D03*
X20320000Y-34290000D03*
X20320000Y-38100000D03*
X20320000Y-41910000D03*
X20320000Y-45720000D03*
X20320000Y-49530000D03*
X36195000Y-48260000D03*
X34290000Y-47625000D03*
X36195000Y-46355000D03*
X41910000Y-45720000D03*
X41910000Y-43180000D03*
X48895000Y-48260000D03*
X48895000Y-50800000D03*
X52705000Y-51435000D03*
X20320000Y-53340000D03*
X26035000Y-53340000D03*
X29845000Y-53340000D03*
X33655000Y-53340000D03*
X37465000Y-53340000D03*
X41275000Y-53340000D03*
X45085000Y-53340000D03*
X48895000Y-53340000D03*
X46990000Y-48260000D03*
X46990000Y-44450000D03*
X46990000Y-40640000D03*
X43815000Y-40640000D03*
X43815000Y-39370000D03*
X45720000Y-34290000D03*
X45720000Y-38100000D03*
X52705000Y-53340000D03*
X57150000Y-48895000D03*
X62865000Y-50165000D03*
X53975000Y-40640000D03*
X52705000Y-33020000D03*
X52705000Y-35560000D03*
X49022000Y-36830000D03*
X57150000Y-30480000D03*
X59055000Y-29210000D03*
X59690000Y-21590000D03*
X59055000Y-24130000D03*
X67056000Y-20320000D03*
X67945000Y-22860000D03*
X73025000Y-29210000D03*
X59055000Y-35814000D03*
X62865000Y-36195000D03*
X59055000Y-33020000D03*
X62230000Y-33020000D03*
X65405000Y-33655000D03*
X65405000Y-34925000D03*
X71120000Y-34544000D03*
X68580000Y-34544000D03*
X73660000Y-34544000D03*
X78105000Y-27305000D03*
X78740000Y-24765000D03*
X102235000Y-24765000D03*
X77470000Y-33655000D03*
X81280000Y-33655000D03*
X81280000Y-27940000D03*
X81280000Y-24130000D03*
X83185000Y-20320000D03*
X83185000Y-24130000D03*
X90170000Y-28575000D03*
X86995000Y-27940000D03*
X83185000Y-27940000D03*
X83185000Y-35560000D03*
X86995000Y-35560000D03*
X90805000Y-35560000D03*
X94615000Y-35560000D03*
X96520000Y-34925000D03*
X100965000Y-30480000D03*
X100965000Y-33655000D03*
X104775000Y-31115000D03*
X104775000Y-33655000D03*
X106045000Y-27940000D03*
X106045000Y-24130000D03*
X113665000Y-29845000D03*
X117475000Y-29845000D03*
X110490000Y-29845000D03*
X110490000Y-33655000D03*
X109855000Y-24130000D03*
X109855000Y-27940000D03*
X113665000Y-27940000D03*
X117475000Y-27940000D03*
X117475000Y-24130000D03*
X81280000Y-20320000D03*
X75692000Y-19939000D03*
X50800000Y-20320000D03*
X54610000Y-20320000D03*
X58420000Y-20320000D03*
X45085000Y-20955000D03*
X35560000Y-20320000D03*
X31750000Y-20320000D03*
X27940000Y-20320000D03*
X24130000Y-20320000D03*
X20320000Y-20320000D03*
X97685000Y-21225000D03*
X99060000Y-20320000D03*
X106045000Y-20320000D03*
X111379000Y-21971000D03*
X113665000Y-20320000D03*
X66040000Y-44450000D03*
X66040000Y-41910000D03*
X71140000Y-41910000D03*
X81915000Y-43180000D03*
X74930000Y-41910000D03*
X78740000Y-41910000D03*
X84455000Y-43180000D03*
X86995000Y-43180000D03*
X86995000Y-40640000D03*
X92710000Y-40640000D03*
X90170000Y-45720000D03*
X90170000Y-45720000D03*
X86360000Y-45720000D03*
X82550000Y-45720000D03*
X78740000Y-45720000D03*
X67310000Y-49530000D03*
X71120000Y-49530000D03*
X71120000Y-53340000D03*
X74930000Y-53340000D03*
X78740000Y-53340000D03*
X82550000Y-53340000D03*
X86360000Y-53340000D03*
X90170000Y-53340000D03*
X97790000Y-53340000D03*
X93980000Y-53340000D03*
X93980000Y-46990000D03*
X93980000Y-49530000D03*
X97790000Y-49530000D03*
X97790000Y-46990000D03*
X104775000Y-48260000D03*
X104775000Y-50165000D03*
X104775000Y-52705000D03*
X104775000Y-45720000D03*
D15*
X109855000Y-41275000D03*
D16*
X109855000Y-43275000D03*
D15*
X90805000Y-50800000D03*
D16*
X90805000Y-47300000D03*
D15*
X90805000Y-41910000D03*
D16*
X90805000Y-38410000D03*
D17*
X41275000Y-30115000D03*
X41275000Y-32115000D03*
X45720000Y-28845000D03*
X45720000Y-30845000D03*
D18*
X35195000Y-27940000D03*
X37195000Y-27940000D03*
D17*
X45720000Y-25035000D03*
X45720000Y-27035000D03*
D18*
X31385000Y-27940000D03*
X33385000Y-27940000D03*
X39640000Y-22860000D03*
X41640000Y-22860000D03*
D19*
X35095000Y-33020000D03*
X30945000Y-33020000D03*
D20*
X36195000Y-25570000D03*
X36195000Y-21420000D03*
D13*
X32385000Y-44450000D03*
D14*
X34925000Y-44450000D03*
D13*
X34925000Y-40640000D03*
D14*
X32385000Y-40640000D03*
X29845000Y-40640000D03*
D13*
X39370000Y-37465000D03*
D14*
X39370000Y-34925000D03*
D13*
X43815000Y-34925000D03*
D14*
X43815000Y-37465000D03*
D13*
X27305000Y-29845000D03*
D14*
X27305000Y-32385000D03*
X27305000Y-34925000D03*
D13*
X22225000Y-29845000D03*
D14*
X22225000Y-32385000D03*
X22225000Y-34925000D03*
D13*
X48260000Y-33655000D03*
D14*
X50800000Y-33655000D03*
D21*
X39370000Y-30165000D03*
X39370000Y-32065000D03*
X43815000Y-28895000D03*
X43815000Y-30795000D03*
D22*
X35245000Y-29845000D03*
X37145000Y-29845000D03*
D21*
X43815000Y-25085000D03*
X43815000Y-26985000D03*
D22*
X31435000Y-29845000D03*
X33335000Y-29845000D03*
X39690000Y-24765000D03*
X41590000Y-24765000D03*
X32700000Y-36195000D03*
X30800000Y-36195000D03*
D21*
X33020000Y-25715000D03*
X33020000Y-23815000D03*
D23*
X100965000Y-38735000D03*
D24*
X100965000Y-41275000D03*
X100965000Y-46355000D03*
X100965000Y-48895000D03*
X100965000Y-51435000D03*
D25*
X33020000Y-50800000D03*
D26*
X38100000Y-50800000D03*
X43180000Y-50800000D03*
D13*
X72390000Y-22098000D03*
D14*
X69850000Y-22098000D03*
D13*
X95885000Y-22225000D03*
D14*
X93345000Y-22225000D03*
D13*
X107569000Y-22352000D03*
D14*
X105029000Y-22352000D03*
D12*
X117475000Y-20320000D03*
D27*
X106045000Y-38100000D03*
D28*
X111125000Y-38100000D03*
D12*
X74930000Y-32766000D03*
X64135000Y-42672000D03*
X74930000Y-31115000D03*
X46999797Y-28739113D03*
X47625000Y-20320000D03*
X56515000Y-25400000D03*
X74930000Y-24765000D03*
X98425000Y-24765000D03*
X93980000Y-31750000D03*
X70612000Y-31242000D03*
X44577000Y-33020000D03*
X57785000Y-27305000D03*
X67310000Y-36195000D03*
X80010000Y-31750000D03*
X102235000Y-32385000D03*
X42799000Y-32258000D03*
X40640000Y-21025000D03*
X71755000Y-26670000D03*
X95250000Y-26416000D03*
X41910000Y-40005000D03*
X56515000Y-45720000D03*
X51435000Y-43815000D03*
D29*
X74930000Y-33135000D02*
X74930000Y-32766000D01*
X74930000Y-33655000D02*
X74930000Y-33135000D01*
X74930000Y-36830000D02*
X74930000Y-33655000D01*
X64770000Y-37465000D02*
X74295000Y-37465000D01*
X74295000Y-37465000D02*
X74930000Y-36830000D01*
X64135000Y-38100000D02*
X64770000Y-37465000D01*
X64135000Y-42672000D02*
X64135000Y-38100000D01*
X74930000Y-31115000D02*
X74930000Y-30480000D01*
X46999797Y-28739113D02*
X46999797Y-27295203D01*
X46999797Y-27295203D02*
X48260000Y-26035000D01*
X57150000Y-26035000D02*
X48260000Y-26035000D01*
X64770000Y-26035000D02*
X57150000Y-26035000D01*
X57150000Y-26035000D02*
X56515000Y-25400000D01*
X47625000Y-25400000D02*
X47625000Y-24765000D01*
X48260000Y-26035000D02*
X47625000Y-25400000D01*
X66040000Y-29210000D02*
X66040000Y-27305000D01*
X66040000Y-27305000D02*
X64770000Y-26035000D01*
X74930000Y-30480000D02*
X67310000Y-30480000D01*
X67310000Y-30480000D02*
X66040000Y-29210000D01*
X47625000Y-20320000D02*
X47625000Y-24765000D01*
X97790000Y-30480000D02*
X74930000Y-30480000D01*
X74930000Y-24765000D02*
X74930000Y-30480000D01*
X98425000Y-29845000D02*
X97790000Y-30480000D01*
X98425000Y-24765000D02*
X98425000Y-29845000D01*
X93218000Y-32385000D02*
X79990734Y-32385000D01*
X94615000Y-32385000D02*
X93218000Y-32385000D01*
X93218000Y-32385000D02*
X93345000Y-32385000D01*
X93345000Y-32385000D02*
X93980000Y-31750000D01*
X70104000Y-31750000D02*
X71755000Y-31750000D01*
X69215000Y-31750000D02*
X70104000Y-31750000D01*
X70104000Y-31750000D02*
X70612000Y-31242000D01*
X71755000Y-31750000D02*
X74454998Y-31750000D01*
X79990734Y-32385000D02*
X79470735Y-31865001D01*
X74454998Y-31750000D02*
X74569999Y-31865001D01*
X74569999Y-31865001D02*
X79470735Y-31865001D01*
X79470735Y-31865001D02*
X79585736Y-31750000D01*
X79585736Y-31750000D02*
X80010000Y-31750000D01*
X67945000Y-33020000D02*
X67310000Y-33655000D01*
X68580000Y-32385000D02*
X67945000Y-33020000D01*
X67945000Y-33020000D02*
X69215000Y-31750000D01*
D30*
X44577000Y-33020000D02*
X44958000Y-33020000D01*
X45449254Y-33020000D02*
X45974000Y-32495254D01*
X45974000Y-32495254D02*
X46719254Y-31750000D01*
X44958000Y-33020000D02*
X45449254Y-33020000D01*
X44577000Y-33020000D02*
X45024990Y-33020000D01*
D29*
X64135000Y-30480000D02*
X65405000Y-31750000D01*
X46719254Y-31750000D02*
X65405000Y-31750000D01*
X65405000Y-31750000D02*
X66040000Y-32385000D01*
X58420000Y-27940000D02*
X57785000Y-27940000D01*
X63500000Y-27940000D02*
X58420000Y-27940000D01*
X58420000Y-27940000D02*
X57785000Y-27305000D01*
X64135000Y-28575000D02*
X64135000Y-30480000D01*
X64135000Y-28575000D02*
X63500000Y-27940000D01*
X66040000Y-32385000D02*
X67310000Y-33655000D01*
X67310000Y-33655000D02*
X67310000Y-36195000D01*
X94615000Y-32385000D02*
X102235000Y-32385000D01*
X94615000Y-32385000D02*
X95885000Y-32385000D01*
D30*
X37195000Y-27940000D02*
X40005000Y-27940000D01*
X40005000Y-27940000D02*
X41275000Y-29210000D01*
X41275000Y-29210000D02*
X41275000Y-30115000D01*
X39370000Y-32065000D02*
X39370000Y-34925000D01*
X41275000Y-32115000D02*
X39420000Y-32115000D01*
X39420000Y-32115000D02*
X39370000Y-32065000D01*
X45720000Y-28845000D02*
X45720000Y-27035000D01*
X43815000Y-30795000D02*
X45670000Y-30795000D01*
X45670000Y-30795000D02*
X45720000Y-30845000D01*
X43815000Y-34925000D02*
X43815000Y-33675000D01*
X43815000Y-33675000D02*
X43815000Y-30795000D01*
X33385000Y-27940000D02*
X35195000Y-27940000D01*
X44445000Y-22860000D02*
X41640000Y-22860000D01*
X45720000Y-25035000D02*
X45720000Y-24135000D01*
X45720000Y-24135000D02*
X44445000Y-22860000D01*
X31385000Y-27940000D02*
X31385000Y-29795000D01*
X31385000Y-29795000D02*
X31435000Y-29845000D01*
X30945000Y-33020000D02*
X30945000Y-30335000D01*
X30945000Y-30335000D02*
X31435000Y-29845000D01*
X30945000Y-33020000D02*
X30945000Y-36050000D01*
X30945000Y-36050000D02*
X30800000Y-36195000D01*
X27305000Y-29845000D02*
X28555000Y-29845000D01*
X28555000Y-29845000D02*
X29845000Y-31135000D01*
X29845000Y-31135000D02*
X29845000Y-32745000D01*
X29845000Y-32745000D02*
X30120000Y-33020000D01*
X30120000Y-33020000D02*
X30945000Y-33020000D01*
X29210000Y-27305000D02*
X30800000Y-25715000D01*
X30800000Y-25715000D02*
X33020000Y-25715000D01*
X23515000Y-27305000D02*
X29210000Y-27305000D01*
X22225000Y-29845000D02*
X22225000Y-28595000D01*
X22225000Y-28595000D02*
X23515000Y-27305000D01*
X36195000Y-25570000D02*
X33165000Y-25570000D01*
X33165000Y-25570000D02*
X33020000Y-25715000D01*
X39690000Y-24765000D02*
X37000000Y-24765000D01*
X37000000Y-24765000D02*
X36195000Y-25570000D01*
X39690000Y-24765000D02*
X39690000Y-22910000D01*
X39690000Y-22910000D02*
X39640000Y-22860000D01*
X42799000Y-31793998D02*
X42799000Y-32258000D01*
X37925000Y-31115000D02*
X42120002Y-31115000D01*
X42120002Y-31115000D02*
X42799000Y-31793998D01*
X35095000Y-33020000D02*
X36020000Y-33020000D01*
X36020000Y-33020000D02*
X37925000Y-31115000D01*
D29*
X36195000Y-21420000D02*
X40245000Y-21420000D01*
X40245000Y-21420000D02*
X40640000Y-21025000D01*
D30*
X33020000Y-23815000D02*
X33020000Y-23065000D01*
X33020000Y-23065000D02*
X34665000Y-21420000D01*
X34665000Y-21420000D02*
X35295000Y-21420000D01*
X35295000Y-21420000D02*
X36195000Y-21420000D01*
X32700000Y-36195000D02*
X32700000Y-35895000D01*
X32700000Y-35895000D02*
X35095000Y-33500000D01*
X35095000Y-33500000D02*
X35095000Y-33020000D01*
X71755000Y-26670000D02*
X71755000Y-22733000D01*
X71755000Y-22733000D02*
X72390000Y-22098000D01*
D29*
X95250000Y-26416000D02*
X95250000Y-22733000D01*
X95250000Y-22733000D02*
X95885000Y-22098000D01*
X22225000Y-34925000D02*
X22225000Y-38100000D01*
X22225000Y-38100000D02*
X22860000Y-38735000D01*
X22860000Y-38735000D02*
X36830000Y-38735000D01*
X36830000Y-38735000D02*
X37434999Y-39339999D01*
X37434999Y-39339999D02*
X41244999Y-39339999D01*
X41244999Y-39339999D02*
X41910000Y-40005000D01*
D31*
X52705000Y-45085000D02*
X55880000Y-45085000D01*
X55880000Y-45085000D02*
X56515000Y-45720000D01*
X52705000Y-45085000D02*
X51435000Y-43815000D01*
D30*
X37145000Y-29845000D02*
X39050000Y-29845000D01*
X39050000Y-29845000D02*
X39370000Y-30165000D01*
X43815000Y-28895000D02*
X43815000Y-26985000D01*
X33335000Y-29845000D02*
X35245000Y-29845000D01*
X41590000Y-24765000D02*
X43495000Y-24765000D01*
X43495000Y-24765000D02*
X43815000Y-25085000D01*
D32*
G36*
X46832808Y-19789673D02*
X46690162Y-20133201D01*
X46689838Y-20505167D01*
X46740000Y-20626569D01*
X46740000Y-24036352D01*
X46596890Y-23938569D01*
X46512529Y-23921485D01*
X46491439Y-23815459D01*
X46310434Y-23544566D01*
X45035434Y-22269566D01*
X44938352Y-22204698D01*
X44764541Y-22088561D01*
X44445000Y-22025000D01*
X42747926Y-22025000D01*
X42743162Y-21999683D01*
X42604090Y-21783559D01*
X42391890Y-21638569D01*
X42140000Y-21587560D01*
X41140000Y-21587560D01*
X40904683Y-21631838D01*
X40688559Y-21770910D01*
X40640866Y-21840711D01*
X40604090Y-21783559D01*
X40391890Y-21638569D01*
X40140000Y-21587560D01*
X39140000Y-21587560D01*
X38904683Y-21631838D01*
X38688559Y-21770910D01*
X38543569Y-21983110D01*
X38492560Y-22235000D01*
X38492560Y-23485000D01*
X38536838Y-23720317D01*
X38671765Y-23930000D01*
X37000000Y-23930000D01*
X36680459Y-23993561D01*
X36498713Y-24115000D01*
X36409566Y-24174566D01*
X36086572Y-24497560D01*
X35695000Y-24497560D01*
X35459683Y-24541838D01*
X35243559Y-24680910D01*
X35206601Y-24735000D01*
X33953234Y-24735000D01*
X34029699Y-24703327D01*
X34208327Y-24524698D01*
X34305000Y-24291309D01*
X34305000Y-24100750D01*
X34146250Y-23942000D01*
X33147000Y-23942000D01*
X33147000Y-23962000D01*
X32893000Y-23962000D01*
X32893000Y-23942000D01*
X31893750Y-23942000D01*
X31735000Y-24100750D01*
X31735000Y-24291309D01*
X31831673Y-24524698D01*
X32010301Y-24703327D01*
X32146287Y-24759654D01*
X32134683Y-24761838D01*
X31951054Y-24880000D01*
X30800000Y-24880000D01*
X30480460Y-24943560D01*
X30209566Y-25124566D01*
X28864132Y-26470000D01*
X23515000Y-26470000D01*
X23195459Y-26533561D01*
X23098777Y-26598162D01*
X22924565Y-26714566D01*
X21634566Y-28004566D01*
X21453561Y-28275459D01*
X21439219Y-28347560D01*
X21375000Y-28347560D01*
X21139683Y-28391838D01*
X20923559Y-28530910D01*
X20778569Y-28743110D01*
X20727560Y-28995000D01*
X20727560Y-30695000D01*
X20771838Y-30930317D01*
X20910910Y-31146441D01*
X21123110Y-31291431D01*
X21190541Y-31305086D01*
X21145853Y-31334946D01*
X20823946Y-31816715D01*
X20710907Y-32385000D01*
X20823946Y-32953285D01*
X21145853Y-33435054D01*
X21475026Y-33655000D01*
X21145853Y-33874946D01*
X20823946Y-34356715D01*
X20710907Y-34925000D01*
X20823946Y-35493285D01*
X21145853Y-35975054D01*
X21340000Y-36104779D01*
X21340000Y-38099995D01*
X21339999Y-38100000D01*
X21392589Y-38364383D01*
X21407367Y-38438675D01*
X21578094Y-38694187D01*
X21599210Y-38725790D01*
X22234208Y-39360787D01*
X22234210Y-39360790D01*
X22426054Y-39488975D01*
X22521326Y-39552634D01*
X22860000Y-39620001D01*
X22860005Y-39620000D01*
X28755425Y-39620000D01*
X28473039Y-40042622D01*
X28360000Y-40610907D01*
X28360000Y-40669093D01*
X28473039Y-41237378D01*
X28794946Y-41719147D01*
X29276715Y-42041054D01*
X29845000Y-42154093D01*
X30413285Y-42041054D01*
X30895054Y-41719147D01*
X31115000Y-41389974D01*
X31334946Y-41719147D01*
X31816715Y-42041054D01*
X32385000Y-42154093D01*
X32953285Y-42041054D01*
X33435054Y-41719147D01*
X33462850Y-41677548D01*
X33471838Y-41725317D01*
X33610910Y-41941441D01*
X33823110Y-42086431D01*
X34075000Y-42137440D01*
X35775000Y-42137440D01*
X36010317Y-42093162D01*
X36226441Y-41954090D01*
X36371431Y-41741890D01*
X36422440Y-41490000D01*
X36422440Y-39790000D01*
X36390452Y-39620000D01*
X36463420Y-39620000D01*
X36809207Y-39965786D01*
X36809209Y-39965789D01*
X37096324Y-40157632D01*
X37152515Y-40168809D01*
X37434999Y-40225000D01*
X37435004Y-40224999D01*
X40878419Y-40224999D01*
X41067255Y-40413835D01*
X41116883Y-40533943D01*
X41379673Y-40797192D01*
X41723201Y-40939838D01*
X42095167Y-40940162D01*
X42438943Y-40798117D01*
X42702192Y-40535327D01*
X42844838Y-40191799D01*
X42845162Y-39819833D01*
X42703117Y-39476057D01*
X42440327Y-39212808D01*
X42319013Y-39162434D01*
X41870789Y-38714209D01*
X41716148Y-38610882D01*
X41583674Y-38522366D01*
X41527483Y-38511189D01*
X41244999Y-38454998D01*
X41244994Y-38454999D01*
X40839089Y-38454999D01*
X40867440Y-38315000D01*
X40867440Y-36615000D01*
X40823162Y-36379683D01*
X40684090Y-36163559D01*
X40471890Y-36018569D01*
X40404459Y-36004914D01*
X40449147Y-35975054D01*
X40771054Y-35493285D01*
X40884093Y-34925000D01*
X40771054Y-34356715D01*
X40449147Y-33874946D01*
X40205000Y-33711813D01*
X40205000Y-33079485D01*
X40398110Y-33211431D01*
X40650000Y-33262440D01*
X41900000Y-33262440D01*
X42135317Y-33218162D01*
X42351441Y-33079090D01*
X42496431Y-32866890D01*
X42547440Y-32615000D01*
X42547440Y-31615000D01*
X42503162Y-31379683D01*
X42364090Y-31163559D01*
X42294289Y-31115866D01*
X42351441Y-31079090D01*
X42496431Y-30866890D01*
X42517560Y-30762552D01*
X42517560Y-31145000D01*
X42561838Y-31380317D01*
X42700910Y-31596441D01*
X42913110Y-31741431D01*
X42980000Y-31754977D01*
X42980000Y-33427560D01*
X42965000Y-33427560D01*
X42729683Y-33471838D01*
X42513559Y-33610910D01*
X42368569Y-33823110D01*
X42317560Y-34075000D01*
X42317560Y-35775000D01*
X42361838Y-36010317D01*
X42500910Y-36226441D01*
X42713110Y-36371431D01*
X42780541Y-36385086D01*
X42735853Y-36414946D01*
X42413946Y-36896715D01*
X42300907Y-37465000D01*
X42413946Y-38033285D01*
X42735853Y-38515054D01*
X43217622Y-38836961D01*
X43785907Y-38950000D01*
X43844093Y-38950000D01*
X44412378Y-38836961D01*
X44894147Y-38515054D01*
X45190915Y-38070907D01*
X53760000Y-38070907D01*
X53760000Y-38129093D01*
X53873039Y-38697378D01*
X54194946Y-39179147D01*
X54676715Y-39501054D01*
X55245000Y-39614093D01*
X55813285Y-39501054D01*
X56295054Y-39179147D01*
X56522702Y-38838447D01*
X56589817Y-38981358D01*
X57018076Y-39371645D01*
X57428110Y-39541476D01*
X57658000Y-39420155D01*
X57658000Y-38227000D01*
X57638000Y-38227000D01*
X57638000Y-37973000D01*
X57658000Y-37973000D01*
X57658000Y-36779845D01*
X57912000Y-36779845D01*
X57912000Y-37973000D01*
X57932000Y-37973000D01*
X57932000Y-38227000D01*
X57912000Y-38227000D01*
X57912000Y-39420155D01*
X58141890Y-39541476D01*
X58551924Y-39371645D01*
X58854937Y-39095499D01*
X58871838Y-39185317D01*
X59010910Y-39401441D01*
X59223110Y-39546431D01*
X59475000Y-39597440D01*
X61175000Y-39597440D01*
X61410317Y-39553162D01*
X61626441Y-39414090D01*
X61771431Y-39201890D01*
X61822440Y-38950000D01*
X61822440Y-37250000D01*
X61778162Y-37014683D01*
X61639090Y-36798559D01*
X61426890Y-36653569D01*
X61175000Y-36602560D01*
X59475000Y-36602560D01*
X59239683Y-36646838D01*
X59023559Y-36785910D01*
X58878569Y-36998110D01*
X58856699Y-37106107D01*
X58551924Y-36828355D01*
X58141890Y-36658524D01*
X57912000Y-36779845D01*
X57658000Y-36779845D01*
X57428110Y-36658524D01*
X57018076Y-36828355D01*
X56589817Y-37218642D01*
X56522702Y-37361553D01*
X56295054Y-37020853D01*
X55813285Y-36698946D01*
X55245000Y-36585907D01*
X54676715Y-36698946D01*
X54194946Y-37020853D01*
X53873039Y-37502622D01*
X53760000Y-38070907D01*
X45190915Y-38070907D01*
X45216054Y-38033285D01*
X45329093Y-37465000D01*
X45216054Y-36896715D01*
X44894147Y-36414946D01*
X44852548Y-36387150D01*
X44900317Y-36378162D01*
X45116441Y-36239090D01*
X45261431Y-36026890D01*
X45312440Y-35775000D01*
X45312440Y-34075000D01*
X45271044Y-33855000D01*
X45449254Y-33855000D01*
X45768795Y-33791439D01*
X46039688Y-33610434D01*
X46762560Y-32887562D01*
X46762560Y-34505000D01*
X46806838Y-34740317D01*
X46945910Y-34956441D01*
X47158110Y-35101431D01*
X47410000Y-35152440D01*
X49110000Y-35152440D01*
X49345317Y-35108162D01*
X49561441Y-34969090D01*
X49706431Y-34756890D01*
X49720086Y-34689459D01*
X49749946Y-34734147D01*
X50231715Y-35056054D01*
X50800000Y-35169093D01*
X51368285Y-35056054D01*
X51850054Y-34734147D01*
X52171961Y-34252378D01*
X52285000Y-33684093D01*
X52285000Y-33625907D01*
X52171961Y-33057622D01*
X51889575Y-32635000D01*
X65038420Y-32635000D01*
X65414208Y-33010787D01*
X65414210Y-33010790D01*
X66425000Y-34021579D01*
X66425000Y-34798000D01*
X63500000Y-34798000D01*
X63450590Y-34808006D01*
X63408965Y-34836447D01*
X63381685Y-34878841D01*
X63373000Y-34925000D01*
X63373000Y-37678064D01*
X63317367Y-37761325D01*
X63317367Y-37761326D01*
X63249999Y-38100000D01*
X63250000Y-38100005D01*
X63250000Y-42365178D01*
X63200162Y-42485201D01*
X63199838Y-42857167D01*
X63341883Y-43200943D01*
X63373000Y-43232114D01*
X63373000Y-53900000D01*
X19760000Y-53900000D01*
X19760000Y-51290544D01*
X20382571Y-51290544D01*
X20758877Y-52201275D01*
X21455060Y-52898674D01*
X22365133Y-53276569D01*
X23350544Y-53277429D01*
X24261275Y-52901123D01*
X24958674Y-52204940D01*
X25336569Y-51294867D01*
X25337429Y-50309456D01*
X24961123Y-49398725D01*
X24862571Y-49300000D01*
X30872560Y-49300000D01*
X30872560Y-52300000D01*
X30916838Y-52535317D01*
X31055910Y-52751441D01*
X31268110Y-52896431D01*
X31520000Y-52947440D01*
X34520000Y-52947440D01*
X34755317Y-52903162D01*
X34971441Y-52764090D01*
X35116431Y-52551890D01*
X35167440Y-52300000D01*
X35167440Y-51222815D01*
X35964630Y-51222815D01*
X36288980Y-52007800D01*
X36889041Y-52608909D01*
X37673459Y-52934628D01*
X38522815Y-52935370D01*
X39307800Y-52611020D01*
X39605368Y-52313970D01*
X41845635Y-52313970D01*
X42005418Y-52632739D01*
X42796187Y-52942723D01*
X43645387Y-52926497D01*
X44354582Y-52632739D01*
X44514365Y-52313970D01*
X43180000Y-50979605D01*
X41845635Y-52313970D01*
X39605368Y-52313970D01*
X39908909Y-52010959D01*
X40234628Y-51226541D01*
X40235335Y-50416187D01*
X41037277Y-50416187D01*
X41053503Y-51265387D01*
X41347261Y-51974582D01*
X41666030Y-52134365D01*
X43000395Y-50800000D01*
X43359605Y-50800000D01*
X44693970Y-52134365D01*
X45012739Y-51974582D01*
X45322723Y-51183813D01*
X45306497Y-50334613D01*
X45012739Y-49625418D01*
X44693970Y-49465635D01*
X43359605Y-50800000D01*
X43000395Y-50800000D01*
X41666030Y-49465635D01*
X41347261Y-49625418D01*
X41037277Y-50416187D01*
X40235335Y-50416187D01*
X40235370Y-50377185D01*
X39911020Y-49592200D01*
X39605384Y-49286030D01*
X41845635Y-49286030D01*
X43180000Y-50620395D01*
X44514365Y-49286030D01*
X44354582Y-48967261D01*
X43563813Y-48657277D01*
X42714613Y-48673503D01*
X42005418Y-48967261D01*
X41845635Y-49286030D01*
X39605384Y-49286030D01*
X39310959Y-48991091D01*
X38526541Y-48665372D01*
X37677185Y-48664630D01*
X36892200Y-48988980D01*
X36291091Y-49589041D01*
X35965372Y-50373459D01*
X35964630Y-51222815D01*
X35167440Y-51222815D01*
X35167440Y-49300000D01*
X35123162Y-49064683D01*
X34984090Y-48848559D01*
X34771890Y-48703569D01*
X34520000Y-48652560D01*
X31520000Y-48652560D01*
X31284683Y-48696838D01*
X31068559Y-48835910D01*
X30923569Y-49048110D01*
X30872560Y-49300000D01*
X24862571Y-49300000D01*
X24264940Y-48701326D01*
X23354867Y-48323431D01*
X22369456Y-48322571D01*
X21458725Y-48698877D01*
X20761326Y-49395060D01*
X20383431Y-50305133D01*
X20382571Y-51290544D01*
X19760000Y-51290544D01*
X19760000Y-43600000D01*
X30887560Y-43600000D01*
X30887560Y-45300000D01*
X30931838Y-45535317D01*
X31070910Y-45751441D01*
X31283110Y-45896431D01*
X31535000Y-45947440D01*
X33235000Y-45947440D01*
X33470317Y-45903162D01*
X33686441Y-45764090D01*
X33831431Y-45551890D01*
X33845086Y-45484459D01*
X33874946Y-45529147D01*
X34356715Y-45851054D01*
X34925000Y-45964093D01*
X35493285Y-45851054D01*
X35975054Y-45529147D01*
X36296961Y-45047378D01*
X36410000Y-44479093D01*
X36410000Y-44420907D01*
X36326310Y-44000167D01*
X50499838Y-44000167D01*
X50641883Y-44343943D01*
X50904673Y-44607192D01*
X51248201Y-44749838D01*
X51259690Y-44749848D01*
X52149921Y-45640079D01*
X52404593Y-45810245D01*
X52705000Y-45870000D01*
X55554842Y-45870000D01*
X55579847Y-45895005D01*
X55579838Y-45905167D01*
X55721883Y-46248943D01*
X55984673Y-46512192D01*
X56328201Y-46654838D01*
X56700167Y-46655162D01*
X57043943Y-46513117D01*
X57307192Y-46250327D01*
X57449838Y-45906799D01*
X57450162Y-45534833D01*
X57308117Y-45191057D01*
X57045327Y-44927808D01*
X56701799Y-44785162D01*
X56690310Y-44785152D01*
X56435079Y-44529921D01*
X56180407Y-44359755D01*
X55880000Y-44300000D01*
X53030158Y-44300000D01*
X52370153Y-43639995D01*
X52370162Y-43629833D01*
X52228117Y-43286057D01*
X51965327Y-43022808D01*
X51621799Y-42880162D01*
X51249833Y-42879838D01*
X50906057Y-43021883D01*
X50642808Y-43284673D01*
X50500162Y-43628201D01*
X50499838Y-44000167D01*
X36326310Y-44000167D01*
X36296961Y-43852622D01*
X35975054Y-43370853D01*
X35493285Y-43048946D01*
X34925000Y-42935907D01*
X34356715Y-43048946D01*
X33874946Y-43370853D01*
X33847150Y-43412452D01*
X33838162Y-43364683D01*
X33699090Y-43148559D01*
X33486890Y-43003569D01*
X33235000Y-42952560D01*
X31535000Y-42952560D01*
X31299683Y-42996838D01*
X31083559Y-43135910D01*
X30938569Y-43348110D01*
X30887560Y-43600000D01*
X19760000Y-43600000D01*
X19760000Y-23350544D01*
X20382571Y-23350544D01*
X20758877Y-24261275D01*
X21455060Y-24958674D01*
X22365133Y-25336569D01*
X23350544Y-25337429D01*
X24261275Y-24961123D01*
X24958674Y-24264940D01*
X25336569Y-23354867D01*
X25336583Y-23338691D01*
X31735000Y-23338691D01*
X31735000Y-23529250D01*
X31893750Y-23688000D01*
X32893000Y-23688000D01*
X32893000Y-22988750D01*
X33147000Y-22988750D01*
X33147000Y-23688000D01*
X34146250Y-23688000D01*
X34305000Y-23529250D01*
X34305000Y-23338691D01*
X34208327Y-23105302D01*
X34029699Y-22926673D01*
X33796310Y-22830000D01*
X33305750Y-22830000D01*
X33147000Y-22988750D01*
X32893000Y-22988750D01*
X32734250Y-22830000D01*
X32243690Y-22830000D01*
X32010301Y-22926673D01*
X31831673Y-23105302D01*
X31735000Y-23338691D01*
X25336583Y-23338691D01*
X25337429Y-22369456D01*
X25063192Y-21705750D01*
X35060000Y-21705750D01*
X35060000Y-21971309D01*
X35156673Y-22204698D01*
X35335301Y-22383327D01*
X35568690Y-22480000D01*
X35909250Y-22480000D01*
X36068000Y-22321250D01*
X36068000Y-21547000D01*
X36322000Y-21547000D01*
X36322000Y-22321250D01*
X36480750Y-22480000D01*
X36821310Y-22480000D01*
X37054699Y-22383327D01*
X37233327Y-22204698D01*
X37330000Y-21971309D01*
X37330000Y-21705750D01*
X37171250Y-21547000D01*
X36322000Y-21547000D01*
X36068000Y-21547000D01*
X35218750Y-21547000D01*
X35060000Y-21705750D01*
X25063192Y-21705750D01*
X24961123Y-21458725D01*
X24372118Y-20868691D01*
X35060000Y-20868691D01*
X35060000Y-21134250D01*
X35218750Y-21293000D01*
X36068000Y-21293000D01*
X36068000Y-20518750D01*
X36322000Y-20518750D01*
X36322000Y-21293000D01*
X37171250Y-21293000D01*
X37330000Y-21134250D01*
X37330000Y-20868691D01*
X37233327Y-20635302D01*
X37054699Y-20456673D01*
X36821310Y-20360000D01*
X36480750Y-20360000D01*
X36322000Y-20518750D01*
X36068000Y-20518750D01*
X35909250Y-20360000D01*
X35568690Y-20360000D01*
X35335301Y-20456673D01*
X35156673Y-20635302D01*
X35060000Y-20868691D01*
X24372118Y-20868691D01*
X24264940Y-20761326D01*
X23354867Y-20383431D01*
X22369456Y-20382571D01*
X21458725Y-20758877D01*
X20761326Y-21455060D01*
X20383431Y-22365133D01*
X20382571Y-23350544D01*
X19760000Y-23350544D01*
X19760000Y-19760000D01*
X46862533Y-19760000D01*
X46832808Y-19789673D01*
X46832808Y-19789673D01*
G37*
X46832808Y-19789673D02*
X46690162Y-20133201D01*
X46689838Y-20505167D01*
X46740000Y-20626569D01*
X46740000Y-24036352D01*
X46596890Y-23938569D01*
X46512529Y-23921485D01*
X46491439Y-23815459D01*
X46310434Y-23544566D01*
X45035434Y-22269566D01*
X44938352Y-22204698D01*
X44764541Y-22088561D01*
X44445000Y-22025000D01*
X42747926Y-22025000D01*
X42743162Y-21999683D01*
X42604090Y-21783559D01*
X42391890Y-21638569D01*
X42140000Y-21587560D01*
X41140000Y-21587560D01*
X40904683Y-21631838D01*
X40688559Y-21770910D01*
X40640866Y-21840711D01*
X40604090Y-21783559D01*
X40391890Y-21638569D01*
X40140000Y-21587560D01*
X39140000Y-21587560D01*
X38904683Y-21631838D01*
X38688559Y-21770910D01*
X38543569Y-21983110D01*
X38492560Y-22235000D01*
X38492560Y-23485000D01*
X38536838Y-23720317D01*
X38671765Y-23930000D01*
X37000000Y-23930000D01*
X36680459Y-23993561D01*
X36498713Y-24115000D01*
X36409566Y-24174566D01*
X36086572Y-24497560D01*
X35695000Y-24497560D01*
X35459683Y-24541838D01*
X35243559Y-24680910D01*
X35206601Y-24735000D01*
X33953234Y-24735000D01*
X34029699Y-24703327D01*
X34208327Y-24524698D01*
X34305000Y-24291309D01*
X34305000Y-24100750D01*
X34146250Y-23942000D01*
X33147000Y-23942000D01*
X33147000Y-23962000D01*
X32893000Y-23962000D01*
X32893000Y-23942000D01*
X31893750Y-23942000D01*
X31735000Y-24100750D01*
X31735000Y-24291309D01*
X31831673Y-24524698D01*
X32010301Y-24703327D01*
X32146287Y-24759654D01*
X32134683Y-24761838D01*
X31951054Y-24880000D01*
X30800000Y-24880000D01*
X30480460Y-24943560D01*
X30209566Y-25124566D01*
X28864132Y-26470000D01*
X23515000Y-26470000D01*
X23195459Y-26533561D01*
X23098777Y-26598162D01*
X22924565Y-26714566D01*
X21634566Y-28004566D01*
X21453561Y-28275459D01*
X21439219Y-28347560D01*
X21375000Y-28347560D01*
X21139683Y-28391838D01*
X20923559Y-28530910D01*
X20778569Y-28743110D01*
X20727560Y-28995000D01*
X20727560Y-30695000D01*
X20771838Y-30930317D01*
X20910910Y-31146441D01*
X21123110Y-31291431D01*
X21190541Y-31305086D01*
X21145853Y-31334946D01*
X20823946Y-31816715D01*
X20710907Y-32385000D01*
X20823946Y-32953285D01*
X21145853Y-33435054D01*
X21475026Y-33655000D01*
X21145853Y-33874946D01*
X20823946Y-34356715D01*
X20710907Y-34925000D01*
X20823946Y-35493285D01*
X21145853Y-35975054D01*
X21340000Y-36104779D01*
X21340000Y-38099995D01*
X21339999Y-38100000D01*
X21392589Y-38364383D01*
X21407367Y-38438675D01*
X21578094Y-38694187D01*
X21599210Y-38725790D01*
X22234208Y-39360787D01*
X22234210Y-39360790D01*
X22426054Y-39488975D01*
X22521326Y-39552634D01*
X22860000Y-39620001D01*
X22860005Y-39620000D01*
X28755425Y-39620000D01*
X28473039Y-40042622D01*
X28360000Y-40610907D01*
X28360000Y-40669093D01*
X28473039Y-41237378D01*
X28794946Y-41719147D01*
X29276715Y-42041054D01*
X29845000Y-42154093D01*
X30413285Y-42041054D01*
X30895054Y-41719147D01*
X31115000Y-41389974D01*
X31334946Y-41719147D01*
X31816715Y-42041054D01*
X32385000Y-42154093D01*
X32953285Y-42041054D01*
X33435054Y-41719147D01*
X33462850Y-41677548D01*
X33471838Y-41725317D01*
X33610910Y-41941441D01*
X33823110Y-42086431D01*
X34075000Y-42137440D01*
X35775000Y-42137440D01*
X36010317Y-42093162D01*
X36226441Y-41954090D01*
X36371431Y-41741890D01*
X36422440Y-41490000D01*
X36422440Y-39790000D01*
X36390452Y-39620000D01*
X36463420Y-39620000D01*
X36809207Y-39965786D01*
X36809209Y-39965789D01*
X37096324Y-40157632D01*
X37152515Y-40168809D01*
X37434999Y-40225000D01*
X37435004Y-40224999D01*
X40878419Y-40224999D01*
X41067255Y-40413835D01*
X41116883Y-40533943D01*
X41379673Y-40797192D01*
X41723201Y-40939838D01*
X42095167Y-40940162D01*
X42438943Y-40798117D01*
X42702192Y-40535327D01*
X42844838Y-40191799D01*
X42845162Y-39819833D01*
X42703117Y-39476057D01*
X42440327Y-39212808D01*
X42319013Y-39162434D01*
X41870789Y-38714209D01*
X41716148Y-38610882D01*
X41583674Y-38522366D01*
X41527483Y-38511189D01*
X41244999Y-38454998D01*
X41244994Y-38454999D01*
X40839089Y-38454999D01*
X40867440Y-38315000D01*
X40867440Y-36615000D01*
X40823162Y-36379683D01*
X40684090Y-36163559D01*
X40471890Y-36018569D01*
X40404459Y-36004914D01*
X40449147Y-35975054D01*
X40771054Y-35493285D01*
X40884093Y-34925000D01*
X40771054Y-34356715D01*
X40449147Y-33874946D01*
X40205000Y-33711813D01*
X40205000Y-33079485D01*
X40398110Y-33211431D01*
X40650000Y-33262440D01*
X41900000Y-33262440D01*
X42135317Y-33218162D01*
X42351441Y-33079090D01*
X42496431Y-32866890D01*
X42547440Y-32615000D01*
X42547440Y-31615000D01*
X42503162Y-31379683D01*
X42364090Y-31163559D01*
X42294289Y-31115866D01*
X42351441Y-31079090D01*
X42496431Y-30866890D01*
X42517560Y-30762552D01*
X42517560Y-31145000D01*
X42561838Y-31380317D01*
X42700910Y-31596441D01*
X42913110Y-31741431D01*
X42980000Y-31754977D01*
X42980000Y-33427560D01*
X42965000Y-33427560D01*
X42729683Y-33471838D01*
X42513559Y-33610910D01*
X42368569Y-33823110D01*
X42317560Y-34075000D01*
X42317560Y-35775000D01*
X42361838Y-36010317D01*
X42500910Y-36226441D01*
X42713110Y-36371431D01*
X42780541Y-36385086D01*
X42735853Y-36414946D01*
X42413946Y-36896715D01*
X42300907Y-37465000D01*
X42413946Y-38033285D01*
X42735853Y-38515054D01*
X43217622Y-38836961D01*
X43785907Y-38950000D01*
X43844093Y-38950000D01*
X44412378Y-38836961D01*
X44894147Y-38515054D01*
X45190915Y-38070907D01*
X53760000Y-38070907D01*
X53760000Y-38129093D01*
X53873039Y-38697378D01*
X54194946Y-39179147D01*
X54676715Y-39501054D01*
X55245000Y-39614093D01*
X55813285Y-39501054D01*
X56295054Y-39179147D01*
X56522702Y-38838447D01*
X56589817Y-38981358D01*
X57018076Y-39371645D01*
X57428110Y-39541476D01*
X57658000Y-39420155D01*
X57658000Y-38227000D01*
X57638000Y-38227000D01*
X57638000Y-37973000D01*
X57658000Y-37973000D01*
X57658000Y-36779845D01*
X57912000Y-36779845D01*
X57912000Y-37973000D01*
X57932000Y-37973000D01*
X57932000Y-38227000D01*
X57912000Y-38227000D01*
X57912000Y-39420155D01*
X58141890Y-39541476D01*
X58551924Y-39371645D01*
X58854937Y-39095499D01*
X58871838Y-39185317D01*
X59010910Y-39401441D01*
X59223110Y-39546431D01*
X59475000Y-39597440D01*
X61175000Y-39597440D01*
X61410317Y-39553162D01*
X61626441Y-39414090D01*
X61771431Y-39201890D01*
X61822440Y-38950000D01*
X61822440Y-37250000D01*
X61778162Y-37014683D01*
X61639090Y-36798559D01*
X61426890Y-36653569D01*
X61175000Y-36602560D01*
X59475000Y-36602560D01*
X59239683Y-36646838D01*
X59023559Y-36785910D01*
X58878569Y-36998110D01*
X58856699Y-37106107D01*
X58551924Y-36828355D01*
X58141890Y-36658524D01*
X57912000Y-36779845D01*
X57658000Y-36779845D01*
X57428110Y-36658524D01*
X57018076Y-36828355D01*
X56589817Y-37218642D01*
X56522702Y-37361553D01*
X56295054Y-37020853D01*
X55813285Y-36698946D01*
X55245000Y-36585907D01*
X54676715Y-36698946D01*
X54194946Y-37020853D01*
X53873039Y-37502622D01*
X53760000Y-38070907D01*
X45190915Y-38070907D01*
X45216054Y-38033285D01*
X45329093Y-37465000D01*
X45216054Y-36896715D01*
X44894147Y-36414946D01*
X44852548Y-36387150D01*
X44900317Y-36378162D01*
X45116441Y-36239090D01*
X45261431Y-36026890D01*
X45312440Y-35775000D01*
X45312440Y-34075000D01*
X45271044Y-33855000D01*
X45449254Y-33855000D01*
X45768795Y-33791439D01*
X46039688Y-33610434D01*
X46762560Y-32887562D01*
X46762560Y-34505000D01*
X46806838Y-34740317D01*
X46945910Y-34956441D01*
X47158110Y-35101431D01*
X47410000Y-35152440D01*
X49110000Y-35152440D01*
X49345317Y-35108162D01*
X49561441Y-34969090D01*
X49706431Y-34756890D01*
X49720086Y-34689459D01*
X49749946Y-34734147D01*
X50231715Y-35056054D01*
X50800000Y-35169093D01*
X51368285Y-35056054D01*
X51850054Y-34734147D01*
X52171961Y-34252378D01*
X52285000Y-33684093D01*
X52285000Y-33625907D01*
X52171961Y-33057622D01*
X51889575Y-32635000D01*
X65038420Y-32635000D01*
X65414208Y-33010787D01*
X65414210Y-33010790D01*
X66425000Y-34021579D01*
X66425000Y-34798000D01*
X63500000Y-34798000D01*
X63450590Y-34808006D01*
X63408965Y-34836447D01*
X63381685Y-34878841D01*
X63373000Y-34925000D01*
X63373000Y-37678064D01*
X63317367Y-37761325D01*
X63317367Y-37761326D01*
X63249999Y-38100000D01*
X63250000Y-38100005D01*
X63250000Y-42365178D01*
X63200162Y-42485201D01*
X63199838Y-42857167D01*
X63341883Y-43200943D01*
X63373000Y-43232114D01*
X63373000Y-53900000D01*
X19760000Y-53900000D01*
X19760000Y-51290544D01*
X20382571Y-51290544D01*
X20758877Y-52201275D01*
X21455060Y-52898674D01*
X22365133Y-53276569D01*
X23350544Y-53277429D01*
X24261275Y-52901123D01*
X24958674Y-52204940D01*
X25336569Y-51294867D01*
X25337429Y-50309456D01*
X24961123Y-49398725D01*
X24862571Y-49300000D01*
X30872560Y-49300000D01*
X30872560Y-52300000D01*
X30916838Y-52535317D01*
X31055910Y-52751441D01*
X31268110Y-52896431D01*
X31520000Y-52947440D01*
X34520000Y-52947440D01*
X34755317Y-52903162D01*
X34971441Y-52764090D01*
X35116431Y-52551890D01*
X35167440Y-52300000D01*
X35167440Y-51222815D01*
X35964630Y-51222815D01*
X36288980Y-52007800D01*
X36889041Y-52608909D01*
X37673459Y-52934628D01*
X38522815Y-52935370D01*
X39307800Y-52611020D01*
X39605368Y-52313970D01*
X41845635Y-52313970D01*
X42005418Y-52632739D01*
X42796187Y-52942723D01*
X43645387Y-52926497D01*
X44354582Y-52632739D01*
X44514365Y-52313970D01*
X43180000Y-50979605D01*
X41845635Y-52313970D01*
X39605368Y-52313970D01*
X39908909Y-52010959D01*
X40234628Y-51226541D01*
X40235335Y-50416187D01*
X41037277Y-50416187D01*
X41053503Y-51265387D01*
X41347261Y-51974582D01*
X41666030Y-52134365D01*
X43000395Y-50800000D01*
X43359605Y-50800000D01*
X44693970Y-52134365D01*
X45012739Y-51974582D01*
X45322723Y-51183813D01*
X45306497Y-50334613D01*
X45012739Y-49625418D01*
X44693970Y-49465635D01*
X43359605Y-50800000D01*
X43000395Y-50800000D01*
X41666030Y-49465635D01*
X41347261Y-49625418D01*
X41037277Y-50416187D01*
X40235335Y-50416187D01*
X40235370Y-50377185D01*
X39911020Y-49592200D01*
X39605384Y-49286030D01*
X41845635Y-49286030D01*
X43180000Y-50620395D01*
X44514365Y-49286030D01*
X44354582Y-48967261D01*
X43563813Y-48657277D01*
X42714613Y-48673503D01*
X42005418Y-48967261D01*
X41845635Y-49286030D01*
X39605384Y-49286030D01*
X39310959Y-48991091D01*
X38526541Y-48665372D01*
X37677185Y-48664630D01*
X36892200Y-48988980D01*
X36291091Y-49589041D01*
X35965372Y-50373459D01*
X35964630Y-51222815D01*
X35167440Y-51222815D01*
X35167440Y-49300000D01*
X35123162Y-49064683D01*
X34984090Y-48848559D01*
X34771890Y-48703569D01*
X34520000Y-48652560D01*
X31520000Y-48652560D01*
X31284683Y-48696838D01*
X31068559Y-48835910D01*
X30923569Y-49048110D01*
X30872560Y-49300000D01*
X24862571Y-49300000D01*
X24264940Y-48701326D01*
X23354867Y-48323431D01*
X22369456Y-48322571D01*
X21458725Y-48698877D01*
X20761326Y-49395060D01*
X20383431Y-50305133D01*
X20382571Y-51290544D01*
X19760000Y-51290544D01*
X19760000Y-43600000D01*
X30887560Y-43600000D01*
X30887560Y-45300000D01*
X30931838Y-45535317D01*
X31070910Y-45751441D01*
X31283110Y-45896431D01*
X31535000Y-45947440D01*
X33235000Y-45947440D01*
X33470317Y-45903162D01*
X33686441Y-45764090D01*
X33831431Y-45551890D01*
X33845086Y-45484459D01*
X33874946Y-45529147D01*
X34356715Y-45851054D01*
X34925000Y-45964093D01*
X35493285Y-45851054D01*
X35975054Y-45529147D01*
X36296961Y-45047378D01*
X36410000Y-44479093D01*
X36410000Y-44420907D01*
X36326310Y-44000167D01*
X50499838Y-44000167D01*
X50641883Y-44343943D01*
X50904673Y-44607192D01*
X51248201Y-44749838D01*
X51259690Y-44749848D01*
X52149921Y-45640079D01*
X52404593Y-45810245D01*
X52705000Y-45870000D01*
X55554842Y-45870000D01*
X55579847Y-45895005D01*
X55579838Y-45905167D01*
X55721883Y-46248943D01*
X55984673Y-46512192D01*
X56328201Y-46654838D01*
X56700167Y-46655162D01*
X57043943Y-46513117D01*
X57307192Y-46250327D01*
X57449838Y-45906799D01*
X57450162Y-45534833D01*
X57308117Y-45191057D01*
X57045327Y-44927808D01*
X56701799Y-44785162D01*
X56690310Y-44785152D01*
X56435079Y-44529921D01*
X56180407Y-44359755D01*
X55880000Y-44300000D01*
X53030158Y-44300000D01*
X52370153Y-43639995D01*
X52370162Y-43629833D01*
X52228117Y-43286057D01*
X51965327Y-43022808D01*
X51621799Y-42880162D01*
X51249833Y-42879838D01*
X50906057Y-43021883D01*
X50642808Y-43284673D01*
X50500162Y-43628201D01*
X50499838Y-44000167D01*
X36326310Y-44000167D01*
X36296961Y-43852622D01*
X35975054Y-43370853D01*
X35493285Y-43048946D01*
X34925000Y-42935907D01*
X34356715Y-43048946D01*
X33874946Y-43370853D01*
X33847150Y-43412452D01*
X33838162Y-43364683D01*
X33699090Y-43148559D01*
X33486890Y-43003569D01*
X33235000Y-42952560D01*
X31535000Y-42952560D01*
X31299683Y-42996838D01*
X31083559Y-43135910D01*
X30938569Y-43348110D01*
X30887560Y-43600000D01*
X19760000Y-43600000D01*
X19760000Y-23350544D01*
X20382571Y-23350544D01*
X20758877Y-24261275D01*
X21455060Y-24958674D01*
X22365133Y-25336569D01*
X23350544Y-25337429D01*
X24261275Y-24961123D01*
X24958674Y-24264940D01*
X25336569Y-23354867D01*
X25336583Y-23338691D01*
X31735000Y-23338691D01*
X31735000Y-23529250D01*
X31893750Y-23688000D01*
X32893000Y-23688000D01*
X32893000Y-22988750D01*
X33147000Y-22988750D01*
X33147000Y-23688000D01*
X34146250Y-23688000D01*
X34305000Y-23529250D01*
X34305000Y-23338691D01*
X34208327Y-23105302D01*
X34029699Y-22926673D01*
X33796310Y-22830000D01*
X33305750Y-22830000D01*
X33147000Y-22988750D01*
X32893000Y-22988750D01*
X32734250Y-22830000D01*
X32243690Y-22830000D01*
X32010301Y-22926673D01*
X31831673Y-23105302D01*
X31735000Y-23338691D01*
X25336583Y-23338691D01*
X25337429Y-22369456D01*
X25063192Y-21705750D01*
X35060000Y-21705750D01*
X35060000Y-21971309D01*
X35156673Y-22204698D01*
X35335301Y-22383327D01*
X35568690Y-22480000D01*
X35909250Y-22480000D01*
X36068000Y-22321250D01*
X36068000Y-21547000D01*
X36322000Y-21547000D01*
X36322000Y-22321250D01*
X36480750Y-22480000D01*
X36821310Y-22480000D01*
X37054699Y-22383327D01*
X37233327Y-22204698D01*
X37330000Y-21971309D01*
X37330000Y-21705750D01*
X37171250Y-21547000D01*
X36322000Y-21547000D01*
X36068000Y-21547000D01*
X35218750Y-21547000D01*
X35060000Y-21705750D01*
X25063192Y-21705750D01*
X24961123Y-21458725D01*
X24372118Y-20868691D01*
X35060000Y-20868691D01*
X35060000Y-21134250D01*
X35218750Y-21293000D01*
X36068000Y-21293000D01*
X36068000Y-20518750D01*
X36322000Y-20518750D01*
X36322000Y-21293000D01*
X37171250Y-21293000D01*
X37330000Y-21134250D01*
X37330000Y-20868691D01*
X37233327Y-20635302D01*
X37054699Y-20456673D01*
X36821310Y-20360000D01*
X36480750Y-20360000D01*
X36322000Y-20518750D01*
X36068000Y-20518750D01*
X35909250Y-20360000D01*
X35568690Y-20360000D01*
X35335301Y-20456673D01*
X35156673Y-20635302D01*
X35060000Y-20868691D01*
X24372118Y-20868691D01*
X24264940Y-20761326D01*
X23354867Y-20383431D01*
X22369456Y-20382571D01*
X21458725Y-20758877D01*
X20761326Y-21455060D01*
X20383431Y-22365133D01*
X20382571Y-23350544D01*
X19760000Y-23350544D01*
X19760000Y-19760000D01*
X46862533Y-19760000D01*
X46832808Y-19789673D01*
G36*
X30237560Y-28565000D02*
X30281838Y-28800317D01*
X30420910Y-29016441D01*
X30467300Y-29048138D01*
X30437560Y-29195000D01*
X30437560Y-29661572D01*
X30354566Y-29744566D01*
X30173561Y-30015459D01*
X30129224Y-30238355D01*
X29145434Y-29254566D01*
X29078736Y-29210000D01*
X28874541Y-29073561D01*
X28802440Y-29059219D01*
X28802440Y-28995000D01*
X28758162Y-28759683D01*
X28619090Y-28543559D01*
X28406890Y-28398569D01*
X28155000Y-28347560D01*
X26455000Y-28347560D01*
X26219683Y-28391838D01*
X26003559Y-28530910D01*
X25858569Y-28743110D01*
X25807560Y-28995000D01*
X25807560Y-30695000D01*
X25851838Y-30930317D01*
X25990910Y-31146441D01*
X26203110Y-31291431D01*
X26270541Y-31305086D01*
X26225853Y-31334946D01*
X25903946Y-31816715D01*
X25790907Y-32385000D01*
X25903946Y-32953285D01*
X26225853Y-33435054D01*
X26555026Y-33655000D01*
X26225853Y-33874946D01*
X25903946Y-34356715D01*
X25790907Y-34925000D01*
X25903946Y-35493285D01*
X26225853Y-35975054D01*
X26707622Y-36296961D01*
X27275907Y-36410000D01*
X27334093Y-36410000D01*
X27902378Y-36296961D01*
X28384147Y-35975054D01*
X28706054Y-35493285D01*
X28819093Y-34925000D01*
X28706054Y-34356715D01*
X28384147Y-33874946D01*
X28054974Y-33655000D01*
X28384147Y-33435054D01*
X28706054Y-32953285D01*
X28819093Y-32385000D01*
X28706054Y-31816715D01*
X28384147Y-31334946D01*
X28342548Y-31307150D01*
X28390317Y-31298162D01*
X28606441Y-31159090D01*
X28639637Y-31110506D01*
X29010000Y-31480869D01*
X29010000Y-32745000D01*
X29073561Y-33064541D01*
X29210845Y-33270001D01*
X29254566Y-33335434D01*
X29529566Y-33610434D01*
X29800460Y-33791440D01*
X29960577Y-33823289D01*
X30055910Y-33971441D01*
X30110000Y-34008399D01*
X30110000Y-35009200D01*
X29998559Y-35080910D01*
X29853569Y-35293110D01*
X29802560Y-35545000D01*
X29802560Y-36845000D01*
X29846838Y-37080317D01*
X29985910Y-37296441D01*
X30198110Y-37441431D01*
X30450000Y-37492440D01*
X31150000Y-37492440D01*
X31385317Y-37448162D01*
X31601441Y-37309090D01*
X31746431Y-37096890D01*
X31753191Y-37063510D01*
X31811673Y-37204699D01*
X31990302Y-37383327D01*
X32223691Y-37480000D01*
X32414250Y-37480000D01*
X32573000Y-37321250D01*
X32573000Y-36322000D01*
X32827000Y-36322000D01*
X32827000Y-37321250D01*
X32985750Y-37480000D01*
X33176309Y-37480000D01*
X33409698Y-37383327D01*
X33588327Y-37204699D01*
X33685000Y-36971310D01*
X33685000Y-36480750D01*
X33526250Y-36322000D01*
X32827000Y-36322000D01*
X32573000Y-36322000D01*
X32553000Y-36322000D01*
X32553000Y-36068000D01*
X32573000Y-36068000D01*
X32573000Y-35068750D01*
X32827000Y-35068750D01*
X32827000Y-36068000D01*
X33526250Y-36068000D01*
X33685000Y-35909250D01*
X33685000Y-35418690D01*
X33588327Y-35185301D01*
X33409698Y-35006673D01*
X33176309Y-34910000D01*
X32985750Y-34910000D01*
X32827000Y-35068750D01*
X32573000Y-35068750D01*
X32414250Y-34910000D01*
X32223691Y-34910000D01*
X31990302Y-35006673D01*
X31811673Y-35185301D01*
X31780000Y-35261766D01*
X31780000Y-34010757D01*
X31821441Y-33984090D01*
X31966431Y-33771890D01*
X32017440Y-33520000D01*
X32017440Y-33305750D01*
X34035000Y-33305750D01*
X34035000Y-33646310D01*
X34131673Y-33879699D01*
X34310302Y-34058327D01*
X34543691Y-34155000D01*
X34809250Y-34155000D01*
X34968000Y-33996250D01*
X34968000Y-33147000D01*
X35222000Y-33147000D01*
X35222000Y-33996250D01*
X35380750Y-34155000D01*
X35646309Y-34155000D01*
X35879698Y-34058327D01*
X36058327Y-33879699D01*
X36155000Y-33646310D01*
X36155000Y-33305750D01*
X35996250Y-33147000D01*
X35222000Y-33147000D01*
X34968000Y-33147000D01*
X34193750Y-33147000D01*
X34035000Y-33305750D01*
X32017440Y-33305750D01*
X32017440Y-32520000D01*
X31993674Y-32393690D01*
X34035000Y-32393690D01*
X34035000Y-32734250D01*
X34193750Y-32893000D01*
X34968000Y-32893000D01*
X34968000Y-32043750D01*
X35222000Y-32043750D01*
X35222000Y-32893000D01*
X35996250Y-32893000D01*
X36155000Y-32734250D01*
X36155000Y-32393690D01*
X36058327Y-32160301D01*
X35879698Y-31981673D01*
X35646309Y-31885000D01*
X35380750Y-31885000D01*
X35222000Y-32043750D01*
X34968000Y-32043750D01*
X34809250Y-31885000D01*
X34543691Y-31885000D01*
X34310302Y-31981673D01*
X34131673Y-32160301D01*
X34035000Y-32393690D01*
X31993674Y-32393690D01*
X31973162Y-32284683D01*
X31834090Y-32068559D01*
X31780000Y-32031601D01*
X31780000Y-31142440D01*
X31785000Y-31142440D01*
X32020317Y-31098162D01*
X32236441Y-30959090D01*
X32381431Y-30746890D01*
X32384081Y-30733803D01*
X32520910Y-30946441D01*
X32733110Y-31091431D01*
X32985000Y-31142440D01*
X33685000Y-31142440D01*
X33920317Y-31098162D01*
X34136441Y-30959090D01*
X34281431Y-30746890D01*
X34288442Y-30712269D01*
X34291838Y-30730317D01*
X34430910Y-30946441D01*
X34643110Y-31091431D01*
X34895000Y-31142440D01*
X35595000Y-31142440D01*
X35830317Y-31098162D01*
X36046441Y-30959090D01*
X36191431Y-30746890D01*
X36194081Y-30733803D01*
X36330910Y-30946441D01*
X36543110Y-31091431D01*
X36795000Y-31142440D01*
X37495000Y-31142440D01*
X37730317Y-31098162D01*
X37946441Y-30959090D01*
X38091431Y-30746890D01*
X38104267Y-30683506D01*
X38116838Y-30750317D01*
X38255910Y-30966441D01*
X38468110Y-31111431D01*
X38481197Y-31114081D01*
X38268559Y-31250910D01*
X38123569Y-31463110D01*
X38072560Y-31715000D01*
X38072560Y-32415000D01*
X38116838Y-32650317D01*
X38255910Y-32866441D01*
X38468110Y-33011431D01*
X38535000Y-33024977D01*
X38535000Y-33711813D01*
X38290853Y-33874946D01*
X37968946Y-34356715D01*
X37855907Y-34925000D01*
X37968946Y-35493285D01*
X38290853Y-35975054D01*
X38332452Y-36002850D01*
X38284683Y-36011838D01*
X38068559Y-36150910D01*
X37923569Y-36363110D01*
X37872560Y-36615000D01*
X37872560Y-38315000D01*
X37898903Y-38454999D01*
X37801578Y-38454999D01*
X37455790Y-38109210D01*
X37398465Y-38070907D01*
X37168675Y-37917367D01*
X37112484Y-37906190D01*
X36830000Y-37849999D01*
X36829995Y-37850000D01*
X23226579Y-37850000D01*
X23110000Y-37733420D01*
X23110000Y-36104779D01*
X23304147Y-35975054D01*
X23626054Y-35493285D01*
X23739093Y-34925000D01*
X23626054Y-34356715D01*
X23304147Y-33874946D01*
X22974974Y-33655000D01*
X23304147Y-33435054D01*
X23626054Y-32953285D01*
X23739093Y-32385000D01*
X23626054Y-31816715D01*
X23304147Y-31334946D01*
X23262548Y-31307150D01*
X23310317Y-31298162D01*
X23526441Y-31159090D01*
X23671431Y-30946890D01*
X23722440Y-30695000D01*
X23722440Y-28995000D01*
X23678162Y-28759683D01*
X23539090Y-28543559D01*
X23490506Y-28510363D01*
X23860869Y-28140000D01*
X29210000Y-28140000D01*
X29529541Y-28076439D01*
X29800434Y-27895434D01*
X30237560Y-27458308D01*
X30237560Y-28565000D01*
X30237560Y-28565000D01*
G37*
X30237560Y-28565000D02*
X30281838Y-28800317D01*
X30420910Y-29016441D01*
X30467300Y-29048138D01*
X30437560Y-29195000D01*
X30437560Y-29661572D01*
X30354566Y-29744566D01*
X30173561Y-30015459D01*
X30129224Y-30238355D01*
X29145434Y-29254566D01*
X29078736Y-29210000D01*
X28874541Y-29073561D01*
X28802440Y-29059219D01*
X28802440Y-28995000D01*
X28758162Y-28759683D01*
X28619090Y-28543559D01*
X28406890Y-28398569D01*
X28155000Y-28347560D01*
X26455000Y-28347560D01*
X26219683Y-28391838D01*
X26003559Y-28530910D01*
X25858569Y-28743110D01*
X25807560Y-28995000D01*
X25807560Y-30695000D01*
X25851838Y-30930317D01*
X25990910Y-31146441D01*
X26203110Y-31291431D01*
X26270541Y-31305086D01*
X26225853Y-31334946D01*
X25903946Y-31816715D01*
X25790907Y-32385000D01*
X25903946Y-32953285D01*
X26225853Y-33435054D01*
X26555026Y-33655000D01*
X26225853Y-33874946D01*
X25903946Y-34356715D01*
X25790907Y-34925000D01*
X25903946Y-35493285D01*
X26225853Y-35975054D01*
X26707622Y-36296961D01*
X27275907Y-36410000D01*
X27334093Y-36410000D01*
X27902378Y-36296961D01*
X28384147Y-35975054D01*
X28706054Y-35493285D01*
X28819093Y-34925000D01*
X28706054Y-34356715D01*
X28384147Y-33874946D01*
X28054974Y-33655000D01*
X28384147Y-33435054D01*
X28706054Y-32953285D01*
X28819093Y-32385000D01*
X28706054Y-31816715D01*
X28384147Y-31334946D01*
X28342548Y-31307150D01*
X28390317Y-31298162D01*
X28606441Y-31159090D01*
X28639637Y-31110506D01*
X29010000Y-31480869D01*
X29010000Y-32745000D01*
X29073561Y-33064541D01*
X29210845Y-33270001D01*
X29254566Y-33335434D01*
X29529566Y-33610434D01*
X29800460Y-33791440D01*
X29960577Y-33823289D01*
X30055910Y-33971441D01*
X30110000Y-34008399D01*
X30110000Y-35009200D01*
X29998559Y-35080910D01*
X29853569Y-35293110D01*
X29802560Y-35545000D01*
X29802560Y-36845000D01*
X29846838Y-37080317D01*
X29985910Y-37296441D01*
X30198110Y-37441431D01*
X30450000Y-37492440D01*
X31150000Y-37492440D01*
X31385317Y-37448162D01*
X31601441Y-37309090D01*
X31746431Y-37096890D01*
X31753191Y-37063510D01*
X31811673Y-37204699D01*
X31990302Y-37383327D01*
X32223691Y-37480000D01*
X32414250Y-37480000D01*
X32573000Y-37321250D01*
X32573000Y-36322000D01*
X32827000Y-36322000D01*
X32827000Y-37321250D01*
X32985750Y-37480000D01*
X33176309Y-37480000D01*
X33409698Y-37383327D01*
X33588327Y-37204699D01*
X33685000Y-36971310D01*
X33685000Y-36480750D01*
X33526250Y-36322000D01*
X32827000Y-36322000D01*
X32573000Y-36322000D01*
X32553000Y-36322000D01*
X32553000Y-36068000D01*
X32573000Y-36068000D01*
X32573000Y-35068750D01*
X32827000Y-35068750D01*
X32827000Y-36068000D01*
X33526250Y-36068000D01*
X33685000Y-35909250D01*
X33685000Y-35418690D01*
X33588327Y-35185301D01*
X33409698Y-35006673D01*
X33176309Y-34910000D01*
X32985750Y-34910000D01*
X32827000Y-35068750D01*
X32573000Y-35068750D01*
X32414250Y-34910000D01*
X32223691Y-34910000D01*
X31990302Y-35006673D01*
X31811673Y-35185301D01*
X31780000Y-35261766D01*
X31780000Y-34010757D01*
X31821441Y-33984090D01*
X31966431Y-33771890D01*
X32017440Y-33520000D01*
X32017440Y-33305750D01*
X34035000Y-33305750D01*
X34035000Y-33646310D01*
X34131673Y-33879699D01*
X34310302Y-34058327D01*
X34543691Y-34155000D01*
X34809250Y-34155000D01*
X34968000Y-33996250D01*
X34968000Y-33147000D01*
X35222000Y-33147000D01*
X35222000Y-33996250D01*
X35380750Y-34155000D01*
X35646309Y-34155000D01*
X35879698Y-34058327D01*
X36058327Y-33879699D01*
X36155000Y-33646310D01*
X36155000Y-33305750D01*
X35996250Y-33147000D01*
X35222000Y-33147000D01*
X34968000Y-33147000D01*
X34193750Y-33147000D01*
X34035000Y-33305750D01*
X32017440Y-33305750D01*
X32017440Y-32520000D01*
X31993674Y-32393690D01*
X34035000Y-32393690D01*
X34035000Y-32734250D01*
X34193750Y-32893000D01*
X34968000Y-32893000D01*
X34968000Y-32043750D01*
X35222000Y-32043750D01*
X35222000Y-32893000D01*
X35996250Y-32893000D01*
X36155000Y-32734250D01*
X36155000Y-32393690D01*
X36058327Y-32160301D01*
X35879698Y-31981673D01*
X35646309Y-31885000D01*
X35380750Y-31885000D01*
X35222000Y-32043750D01*
X34968000Y-32043750D01*
X34809250Y-31885000D01*
X34543691Y-31885000D01*
X34310302Y-31981673D01*
X34131673Y-32160301D01*
X34035000Y-32393690D01*
X31993674Y-32393690D01*
X31973162Y-32284683D01*
X31834090Y-32068559D01*
X31780000Y-32031601D01*
X31780000Y-31142440D01*
X31785000Y-31142440D01*
X32020317Y-31098162D01*
X32236441Y-30959090D01*
X32381431Y-30746890D01*
X32384081Y-30733803D01*
X32520910Y-30946441D01*
X32733110Y-31091431D01*
X32985000Y-31142440D01*
X33685000Y-31142440D01*
X33920317Y-31098162D01*
X34136441Y-30959090D01*
X34281431Y-30746890D01*
X34288442Y-30712269D01*
X34291838Y-30730317D01*
X34430910Y-30946441D01*
X34643110Y-31091431D01*
X34895000Y-31142440D01*
X35595000Y-31142440D01*
X35830317Y-31098162D01*
X36046441Y-30959090D01*
X36191431Y-30746890D01*
X36194081Y-30733803D01*
X36330910Y-30946441D01*
X36543110Y-31091431D01*
X36795000Y-31142440D01*
X37495000Y-31142440D01*
X37730317Y-31098162D01*
X37946441Y-30959090D01*
X38091431Y-30746890D01*
X38104267Y-30683506D01*
X38116838Y-30750317D01*
X38255910Y-30966441D01*
X38468110Y-31111431D01*
X38481197Y-31114081D01*
X38268559Y-31250910D01*
X38123569Y-31463110D01*
X38072560Y-31715000D01*
X38072560Y-32415000D01*
X38116838Y-32650317D01*
X38255910Y-32866441D01*
X38468110Y-33011431D01*
X38535000Y-33024977D01*
X38535000Y-33711813D01*
X38290853Y-33874946D01*
X37968946Y-34356715D01*
X37855907Y-34925000D01*
X37968946Y-35493285D01*
X38290853Y-35975054D01*
X38332452Y-36002850D01*
X38284683Y-36011838D01*
X38068559Y-36150910D01*
X37923569Y-36363110D01*
X37872560Y-36615000D01*
X37872560Y-38315000D01*
X37898903Y-38454999D01*
X37801578Y-38454999D01*
X37455790Y-38109210D01*
X37398465Y-38070907D01*
X37168675Y-37917367D01*
X37112484Y-37906190D01*
X36830000Y-37849999D01*
X36829995Y-37850000D01*
X23226579Y-37850000D01*
X23110000Y-37733420D01*
X23110000Y-36104779D01*
X23304147Y-35975054D01*
X23626054Y-35493285D01*
X23739093Y-34925000D01*
X23626054Y-34356715D01*
X23304147Y-33874946D01*
X22974974Y-33655000D01*
X23304147Y-33435054D01*
X23626054Y-32953285D01*
X23739093Y-32385000D01*
X23626054Y-31816715D01*
X23304147Y-31334946D01*
X23262548Y-31307150D01*
X23310317Y-31298162D01*
X23526441Y-31159090D01*
X23671431Y-30946890D01*
X23722440Y-30695000D01*
X23722440Y-28995000D01*
X23678162Y-28759683D01*
X23539090Y-28543559D01*
X23490506Y-28510363D01*
X23860869Y-28140000D01*
X29210000Y-28140000D01*
X29529541Y-28076439D01*
X29800434Y-27895434D01*
X30237560Y-27458308D01*
X30237560Y-28565000D01*
G36*
X118035000Y-30353000D02*
X111125000Y-30353000D01*
X111075590Y-30363006D01*
X111033965Y-30391447D01*
X111006685Y-30433841D01*
X110998000Y-30480000D01*
X110998000Y-34163000D01*
X98425000Y-34163000D01*
X98375590Y-34173006D01*
X98335197Y-34200197D01*
X96467394Y-36068000D01*
X81967606Y-36068000D01*
X81407000Y-35507394D01*
X81407000Y-34925000D01*
X81396994Y-34875590D01*
X81368553Y-34833965D01*
X81326159Y-34806685D01*
X81280000Y-34798000D01*
X75815000Y-34798000D01*
X75815000Y-33072822D01*
X75864838Y-32952799D01*
X75865015Y-32750001D01*
X79104155Y-32750001D01*
X79364942Y-33010787D01*
X79364944Y-33010790D01*
X79652059Y-33202633D01*
X79708250Y-33213810D01*
X79990734Y-33270001D01*
X79990739Y-33270000D01*
X93344995Y-33270000D01*
X93345000Y-33270001D01*
X93345005Y-33270000D01*
X101928178Y-33270000D01*
X102048201Y-33319838D01*
X102420167Y-33320162D01*
X102763943Y-33178117D01*
X103027192Y-32915327D01*
X103169838Y-32571799D01*
X103170162Y-32199833D01*
X103028117Y-31856057D01*
X102765327Y-31592808D01*
X102421799Y-31450162D01*
X102049833Y-31449838D01*
X101928431Y-31500000D01*
X94888374Y-31500000D01*
X94832593Y-31365000D01*
X97789995Y-31365000D01*
X97790000Y-31365001D01*
X98107731Y-31301799D01*
X98128675Y-31297633D01*
X98415790Y-31105790D01*
X98415791Y-31105789D01*
X99050787Y-30470792D01*
X99050790Y-30470790D01*
X99178975Y-30278946D01*
X99242634Y-30183674D01*
X99310001Y-29845000D01*
X99310000Y-29844995D01*
X99310000Y-25071822D01*
X99359838Y-24951799D01*
X99360162Y-24579833D01*
X99218117Y-24236057D01*
X98955327Y-23972808D01*
X98611799Y-23830162D01*
X98239833Y-23829838D01*
X97896057Y-23971883D01*
X97632808Y-24234673D01*
X97490162Y-24578201D01*
X97489838Y-24950167D01*
X97540000Y-25071569D01*
X97540000Y-29478421D01*
X97423420Y-29595000D01*
X75815000Y-29595000D01*
X75815000Y-25071822D01*
X75864838Y-24951799D01*
X75865162Y-24579833D01*
X75723117Y-24236057D01*
X75460327Y-23972808D01*
X75116799Y-23830162D01*
X74744833Y-23829838D01*
X74401057Y-23971883D01*
X74137808Y-24234673D01*
X73995162Y-24578201D01*
X73994838Y-24950167D01*
X74045000Y-25071569D01*
X74045000Y-29595000D01*
X67676579Y-29595000D01*
X66925000Y-28843420D01*
X66925000Y-27305005D01*
X66925001Y-27305000D01*
X66857633Y-26966325D01*
X66783360Y-26855167D01*
X66665790Y-26679210D01*
X66665787Y-26679208D01*
X65395790Y-25409210D01*
X65382006Y-25400000D01*
X65108675Y-25217367D01*
X65052484Y-25206190D01*
X64770000Y-25149999D01*
X64769995Y-25150000D01*
X57516579Y-25150000D01*
X57357744Y-24991165D01*
X57308117Y-24871057D01*
X57045327Y-24607808D01*
X56701799Y-24465162D01*
X56329833Y-24464838D01*
X55986057Y-24606883D01*
X55722808Y-24869673D01*
X55606405Y-25150000D01*
X48626579Y-25150000D01*
X48510000Y-25033420D01*
X48510000Y-22454892D01*
X68408514Y-22454892D01*
X68654817Y-22979358D01*
X69083076Y-23369645D01*
X69493110Y-23539476D01*
X69723000Y-23418155D01*
X69723000Y-22225000D01*
X68529181Y-22225000D01*
X68408514Y-22454892D01*
X48510000Y-22454892D01*
X48510000Y-21741108D01*
X68408514Y-21741108D01*
X68529181Y-21971000D01*
X69723000Y-21971000D01*
X69723000Y-20777845D01*
X69977000Y-20777845D01*
X69977000Y-21971000D01*
X69997000Y-21971000D01*
X69997000Y-22225000D01*
X69977000Y-22225000D01*
X69977000Y-23418155D01*
X70206890Y-23539476D01*
X70616924Y-23369645D01*
X70919937Y-23093499D01*
X70920000Y-23093831D01*
X70920000Y-26242766D01*
X70820162Y-26483201D01*
X70819838Y-26855167D01*
X70961883Y-27198943D01*
X71224673Y-27462192D01*
X71568201Y-27604838D01*
X71940167Y-27605162D01*
X72283943Y-27463117D01*
X72547192Y-27200327D01*
X72689838Y-26856799D01*
X72690162Y-26484833D01*
X72590000Y-26242422D01*
X72590000Y-23595440D01*
X73240000Y-23595440D01*
X73475317Y-23551162D01*
X73691441Y-23412090D01*
X73836431Y-23199890D01*
X73887440Y-22948000D01*
X73887440Y-22581892D01*
X91903514Y-22581892D01*
X92149817Y-23106358D01*
X92578076Y-23496645D01*
X92988110Y-23666476D01*
X93218000Y-23545155D01*
X93218000Y-22352000D01*
X92024181Y-22352000D01*
X91903514Y-22581892D01*
X73887440Y-22581892D01*
X73887440Y-21868108D01*
X91903514Y-21868108D01*
X92024181Y-22098000D01*
X93218000Y-22098000D01*
X93218000Y-20904845D01*
X93472000Y-20904845D01*
X93472000Y-22098000D01*
X93492000Y-22098000D01*
X93492000Y-22352000D01*
X93472000Y-22352000D01*
X93472000Y-23545155D01*
X93701890Y-23666476D01*
X94111924Y-23496645D01*
X94365000Y-23266008D01*
X94365000Y-26109178D01*
X94315162Y-26229201D01*
X94314838Y-26601167D01*
X94456883Y-26944943D01*
X94719673Y-27208192D01*
X95063201Y-27350838D01*
X95435167Y-27351162D01*
X95778943Y-27209117D01*
X96042192Y-26946327D01*
X96184838Y-26602799D01*
X96185162Y-26230833D01*
X96135000Y-26109431D01*
X96135000Y-23722440D01*
X96735000Y-23722440D01*
X96970317Y-23678162D01*
X97186441Y-23539090D01*
X97331431Y-23326890D01*
X97382440Y-23075000D01*
X97382440Y-22708892D01*
X103587514Y-22708892D01*
X103833817Y-23233358D01*
X104262076Y-23623645D01*
X104672110Y-23793476D01*
X104902000Y-23672155D01*
X104902000Y-22479000D01*
X103708181Y-22479000D01*
X103587514Y-22708892D01*
X97382440Y-22708892D01*
X97382440Y-21995108D01*
X103587514Y-21995108D01*
X103708181Y-22225000D01*
X104902000Y-22225000D01*
X104902000Y-21031845D01*
X105156000Y-21031845D01*
X105156000Y-22225000D01*
X105176000Y-22225000D01*
X105176000Y-22479000D01*
X105156000Y-22479000D01*
X105156000Y-23672155D01*
X105385890Y-23793476D01*
X105795924Y-23623645D01*
X106098937Y-23347499D01*
X106115838Y-23437317D01*
X106254910Y-23653441D01*
X106467110Y-23798431D01*
X106719000Y-23849440D01*
X108419000Y-23849440D01*
X108654317Y-23805162D01*
X108870441Y-23666090D01*
X109015431Y-23453890D01*
X109036359Y-23350544D01*
X112457571Y-23350544D01*
X112833877Y-24261275D01*
X113530060Y-24958674D01*
X114440133Y-25336569D01*
X115425544Y-25337429D01*
X116336275Y-24961123D01*
X117033674Y-24264940D01*
X117411569Y-23354867D01*
X117412429Y-22369456D01*
X117036123Y-21458725D01*
X116339940Y-20761326D01*
X115429867Y-20383431D01*
X114444456Y-20382571D01*
X113533725Y-20758877D01*
X112836326Y-21455060D01*
X112458431Y-22365133D01*
X112457571Y-23350544D01*
X109036359Y-23350544D01*
X109066440Y-23202000D01*
X109066440Y-21502000D01*
X109022162Y-21266683D01*
X108883090Y-21050559D01*
X108670890Y-20905569D01*
X108419000Y-20854560D01*
X106719000Y-20854560D01*
X106483683Y-20898838D01*
X106267559Y-21037910D01*
X106122569Y-21250110D01*
X106100699Y-21358107D01*
X105795924Y-21080355D01*
X105385890Y-20910524D01*
X105156000Y-21031845D01*
X104902000Y-21031845D01*
X104672110Y-20910524D01*
X104262076Y-21080355D01*
X103833817Y-21470642D01*
X103587514Y-21995108D01*
X97382440Y-21995108D01*
X97382440Y-21375000D01*
X97338162Y-21139683D01*
X97199090Y-20923559D01*
X96986890Y-20778569D01*
X96735000Y-20727560D01*
X95035000Y-20727560D01*
X94799683Y-20771838D01*
X94583559Y-20910910D01*
X94438569Y-21123110D01*
X94416699Y-21231107D01*
X94111924Y-20953355D01*
X93701890Y-20783524D01*
X93472000Y-20904845D01*
X93218000Y-20904845D01*
X92988110Y-20783524D01*
X92578076Y-20953355D01*
X92149817Y-21343642D01*
X91903514Y-21868108D01*
X73887440Y-21868108D01*
X73887440Y-21248000D01*
X73843162Y-21012683D01*
X73704090Y-20796559D01*
X73491890Y-20651569D01*
X73240000Y-20600560D01*
X71540000Y-20600560D01*
X71304683Y-20644838D01*
X71088559Y-20783910D01*
X70943569Y-20996110D01*
X70921699Y-21104107D01*
X70616924Y-20826355D01*
X70206890Y-20656524D01*
X69977000Y-20777845D01*
X69723000Y-20777845D01*
X69493110Y-20656524D01*
X69083076Y-20826355D01*
X68654817Y-21216642D01*
X68408514Y-21741108D01*
X48510000Y-21741108D01*
X48510000Y-20626822D01*
X48559838Y-20506799D01*
X48560162Y-20134833D01*
X48418117Y-19791057D01*
X48387114Y-19760000D01*
X118035000Y-19760000D01*
X118035000Y-30353000D01*
X118035000Y-30353000D01*
G37*
X118035000Y-30353000D02*
X111125000Y-30353000D01*
X111075590Y-30363006D01*
X111033965Y-30391447D01*
X111006685Y-30433841D01*
X110998000Y-30480000D01*
X110998000Y-34163000D01*
X98425000Y-34163000D01*
X98375590Y-34173006D01*
X98335197Y-34200197D01*
X96467394Y-36068000D01*
X81967606Y-36068000D01*
X81407000Y-35507394D01*
X81407000Y-34925000D01*
X81396994Y-34875590D01*
X81368553Y-34833965D01*
X81326159Y-34806685D01*
X81280000Y-34798000D01*
X75815000Y-34798000D01*
X75815000Y-33072822D01*
X75864838Y-32952799D01*
X75865015Y-32750001D01*
X79104155Y-32750001D01*
X79364942Y-33010787D01*
X79364944Y-33010790D01*
X79652059Y-33202633D01*
X79708250Y-33213810D01*
X79990734Y-33270001D01*
X79990739Y-33270000D01*
X93344995Y-33270000D01*
X93345000Y-33270001D01*
X93345005Y-33270000D01*
X101928178Y-33270000D01*
X102048201Y-33319838D01*
X102420167Y-33320162D01*
X102763943Y-33178117D01*
X103027192Y-32915327D01*
X103169838Y-32571799D01*
X103170162Y-32199833D01*
X103028117Y-31856057D01*
X102765327Y-31592808D01*
X102421799Y-31450162D01*
X102049833Y-31449838D01*
X101928431Y-31500000D01*
X94888374Y-31500000D01*
X94832593Y-31365000D01*
X97789995Y-31365000D01*
X97790000Y-31365001D01*
X98107731Y-31301799D01*
X98128675Y-31297633D01*
X98415790Y-31105790D01*
X98415791Y-31105789D01*
X99050787Y-30470792D01*
X99050790Y-30470790D01*
X99178975Y-30278946D01*
X99242634Y-30183674D01*
X99310001Y-29845000D01*
X99310000Y-29844995D01*
X99310000Y-25071822D01*
X99359838Y-24951799D01*
X99360162Y-24579833D01*
X99218117Y-24236057D01*
X98955327Y-23972808D01*
X98611799Y-23830162D01*
X98239833Y-23829838D01*
X97896057Y-23971883D01*
X97632808Y-24234673D01*
X97490162Y-24578201D01*
X97489838Y-24950167D01*
X97540000Y-25071569D01*
X97540000Y-29478421D01*
X97423420Y-29595000D01*
X75815000Y-29595000D01*
X75815000Y-25071822D01*
X75864838Y-24951799D01*
X75865162Y-24579833D01*
X75723117Y-24236057D01*
X75460327Y-23972808D01*
X75116799Y-23830162D01*
X74744833Y-23829838D01*
X74401057Y-23971883D01*
X74137808Y-24234673D01*
X73995162Y-24578201D01*
X73994838Y-24950167D01*
X74045000Y-25071569D01*
X74045000Y-29595000D01*
X67676579Y-29595000D01*
X66925000Y-28843420D01*
X66925000Y-27305005D01*
X66925001Y-27305000D01*
X66857633Y-26966325D01*
X66783360Y-26855167D01*
X66665790Y-26679210D01*
X66665787Y-26679208D01*
X65395790Y-25409210D01*
X65382006Y-25400000D01*
X65108675Y-25217367D01*
X65052484Y-25206190D01*
X64770000Y-25149999D01*
X64769995Y-25150000D01*
X57516579Y-25150000D01*
X57357744Y-24991165D01*
X57308117Y-24871057D01*
X57045327Y-24607808D01*
X56701799Y-24465162D01*
X56329833Y-24464838D01*
X55986057Y-24606883D01*
X55722808Y-24869673D01*
X55606405Y-25150000D01*
X48626579Y-25150000D01*
X48510000Y-25033420D01*
X48510000Y-22454892D01*
X68408514Y-22454892D01*
X68654817Y-22979358D01*
X69083076Y-23369645D01*
X69493110Y-23539476D01*
X69723000Y-23418155D01*
X69723000Y-22225000D01*
X68529181Y-22225000D01*
X68408514Y-22454892D01*
X48510000Y-22454892D01*
X48510000Y-21741108D01*
X68408514Y-21741108D01*
X68529181Y-21971000D01*
X69723000Y-21971000D01*
X69723000Y-20777845D01*
X69977000Y-20777845D01*
X69977000Y-21971000D01*
X69997000Y-21971000D01*
X69997000Y-22225000D01*
X69977000Y-22225000D01*
X69977000Y-23418155D01*
X70206890Y-23539476D01*
X70616924Y-23369645D01*
X70919937Y-23093499D01*
X70920000Y-23093831D01*
X70920000Y-26242766D01*
X70820162Y-26483201D01*
X70819838Y-26855167D01*
X70961883Y-27198943D01*
X71224673Y-27462192D01*
X71568201Y-27604838D01*
X71940167Y-27605162D01*
X72283943Y-27463117D01*
X72547192Y-27200327D01*
X72689838Y-26856799D01*
X72690162Y-26484833D01*
X72590000Y-26242422D01*
X72590000Y-23595440D01*
X73240000Y-23595440D01*
X73475317Y-23551162D01*
X73691441Y-23412090D01*
X73836431Y-23199890D01*
X73887440Y-22948000D01*
X73887440Y-22581892D01*
X91903514Y-22581892D01*
X92149817Y-23106358D01*
X92578076Y-23496645D01*
X92988110Y-23666476D01*
X93218000Y-23545155D01*
X93218000Y-22352000D01*
X92024181Y-22352000D01*
X91903514Y-22581892D01*
X73887440Y-22581892D01*
X73887440Y-21868108D01*
X91903514Y-21868108D01*
X92024181Y-22098000D01*
X93218000Y-22098000D01*
X93218000Y-20904845D01*
X93472000Y-20904845D01*
X93472000Y-22098000D01*
X93492000Y-22098000D01*
X93492000Y-22352000D01*
X93472000Y-22352000D01*
X93472000Y-23545155D01*
X93701890Y-23666476D01*
X94111924Y-23496645D01*
X94365000Y-23266008D01*
X94365000Y-26109178D01*
X94315162Y-26229201D01*
X94314838Y-26601167D01*
X94456883Y-26944943D01*
X94719673Y-27208192D01*
X95063201Y-27350838D01*
X95435167Y-27351162D01*
X95778943Y-27209117D01*
X96042192Y-26946327D01*
X96184838Y-26602799D01*
X96185162Y-26230833D01*
X96135000Y-26109431D01*
X96135000Y-23722440D01*
X96735000Y-23722440D01*
X96970317Y-23678162D01*
X97186441Y-23539090D01*
X97331431Y-23326890D01*
X97382440Y-23075000D01*
X97382440Y-22708892D01*
X103587514Y-22708892D01*
X103833817Y-23233358D01*
X104262076Y-23623645D01*
X104672110Y-23793476D01*
X104902000Y-23672155D01*
X104902000Y-22479000D01*
X103708181Y-22479000D01*
X103587514Y-22708892D01*
X97382440Y-22708892D01*
X97382440Y-21995108D01*
X103587514Y-21995108D01*
X103708181Y-22225000D01*
X104902000Y-22225000D01*
X104902000Y-21031845D01*
X105156000Y-21031845D01*
X105156000Y-22225000D01*
X105176000Y-22225000D01*
X105176000Y-22479000D01*
X105156000Y-22479000D01*
X105156000Y-23672155D01*
X105385890Y-23793476D01*
X105795924Y-23623645D01*
X106098937Y-23347499D01*
X106115838Y-23437317D01*
X106254910Y-23653441D01*
X106467110Y-23798431D01*
X106719000Y-23849440D01*
X108419000Y-23849440D01*
X108654317Y-23805162D01*
X108870441Y-23666090D01*
X109015431Y-23453890D01*
X109036359Y-23350544D01*
X112457571Y-23350544D01*
X112833877Y-24261275D01*
X113530060Y-24958674D01*
X114440133Y-25336569D01*
X115425544Y-25337429D01*
X116336275Y-24961123D01*
X117033674Y-24264940D01*
X117411569Y-23354867D01*
X117412429Y-22369456D01*
X117036123Y-21458725D01*
X116339940Y-20761326D01*
X115429867Y-20383431D01*
X114444456Y-20382571D01*
X113533725Y-20758877D01*
X112836326Y-21455060D01*
X112458431Y-22365133D01*
X112457571Y-23350544D01*
X109036359Y-23350544D01*
X109066440Y-23202000D01*
X109066440Y-21502000D01*
X109022162Y-21266683D01*
X108883090Y-21050559D01*
X108670890Y-20905569D01*
X108419000Y-20854560D01*
X106719000Y-20854560D01*
X106483683Y-20898838D01*
X106267559Y-21037910D01*
X106122569Y-21250110D01*
X106100699Y-21358107D01*
X105795924Y-21080355D01*
X105385890Y-20910524D01*
X105156000Y-21031845D01*
X104902000Y-21031845D01*
X104672110Y-20910524D01*
X104262076Y-21080355D01*
X103833817Y-21470642D01*
X103587514Y-21995108D01*
X97382440Y-21995108D01*
X97382440Y-21375000D01*
X97338162Y-21139683D01*
X97199090Y-20923559D01*
X96986890Y-20778569D01*
X96735000Y-20727560D01*
X95035000Y-20727560D01*
X94799683Y-20771838D01*
X94583559Y-20910910D01*
X94438569Y-21123110D01*
X94416699Y-21231107D01*
X94111924Y-20953355D01*
X93701890Y-20783524D01*
X93472000Y-20904845D01*
X93218000Y-20904845D01*
X92988110Y-20783524D01*
X92578076Y-20953355D01*
X92149817Y-21343642D01*
X91903514Y-21868108D01*
X73887440Y-21868108D01*
X73887440Y-21248000D01*
X73843162Y-21012683D01*
X73704090Y-20796559D01*
X73491890Y-20651569D01*
X73240000Y-20600560D01*
X71540000Y-20600560D01*
X71304683Y-20644838D01*
X71088559Y-20783910D01*
X70943569Y-20996110D01*
X70921699Y-21104107D01*
X70616924Y-20826355D01*
X70206890Y-20656524D01*
X69977000Y-20777845D01*
X69723000Y-20777845D01*
X69493110Y-20656524D01*
X69083076Y-20826355D01*
X68654817Y-21216642D01*
X68408514Y-21741108D01*
X48510000Y-21741108D01*
X48510000Y-20626822D01*
X48559838Y-20506799D01*
X48560162Y-20134833D01*
X48418117Y-19791057D01*
X48387114Y-19760000D01*
X118035000Y-19760000D01*
X118035000Y-30353000D01*
G36*
X70104000Y-32635001D02*
X70104005Y-32635000D01*
X73995113Y-32635000D01*
X73994838Y-32951167D01*
X74045000Y-33072569D01*
X74045000Y-34798000D01*
X68195000Y-34798000D01*
X68195000Y-34021580D01*
X68570787Y-33645792D01*
X68570790Y-33645790D01*
X69581579Y-32635000D01*
X70103995Y-32635000D01*
X70104000Y-32635001D01*
X70104000Y-32635001D01*
G37*
X70104000Y-32635001D02*
X70104005Y-32635000D01*
X73995113Y-32635000D01*
X73994838Y-32951167D01*
X74045000Y-33072569D01*
X74045000Y-34798000D01*
X68195000Y-34798000D01*
X68195000Y-34021580D01*
X68570787Y-33645792D01*
X68570790Y-33645790D01*
X69581579Y-32635000D01*
X70103995Y-32635000D01*
X70104000Y-32635001D01*
G36*
X56850162Y-27118201D02*
X56849838Y-27490167D01*
X56944100Y-27718298D01*
X56900000Y-27940000D01*
X56967367Y-28278675D01*
X57159210Y-28565790D01*
X57446325Y-28757633D01*
X57785000Y-28825000D01*
X58419995Y-28825000D01*
X58420000Y-28825001D01*
X58420005Y-28825000D01*
X63133420Y-28825000D01*
X63250000Y-28941579D01*
X63250000Y-30479995D01*
X63249999Y-30480000D01*
X63306190Y-30762484D01*
X63317367Y-30818675D01*
X63348320Y-30865000D01*
X46992440Y-30865000D01*
X46992440Y-30345000D01*
X46948162Y-30109683D01*
X46809090Y-29893559D01*
X46739289Y-29845866D01*
X46796441Y-29809090D01*
X46888732Y-29674017D01*
X47184964Y-29674275D01*
X47528740Y-29532230D01*
X47791989Y-29269440D01*
X47934635Y-28925912D01*
X47934959Y-28553946D01*
X47884797Y-28432544D01*
X47884797Y-27661783D01*
X48626579Y-26920000D01*
X56932463Y-26920000D01*
X56850162Y-27118201D01*
X56850162Y-27118201D01*
G37*
X56850162Y-27118201D02*
X56849838Y-27490167D01*
X56944100Y-27718298D01*
X56900000Y-27940000D01*
X56967367Y-28278675D01*
X57159210Y-28565790D01*
X57446325Y-28757633D01*
X57785000Y-28825000D01*
X58419995Y-28825000D01*
X58420000Y-28825001D01*
X58420005Y-28825000D01*
X63133420Y-28825000D01*
X63250000Y-28941579D01*
X63250000Y-30479995D01*
X63249999Y-30480000D01*
X63306190Y-30762484D01*
X63317367Y-30818675D01*
X63348320Y-30865000D01*
X46992440Y-30865000D01*
X46992440Y-30345000D01*
X46948162Y-30109683D01*
X46809090Y-29893559D01*
X46739289Y-29845866D01*
X46796441Y-29809090D01*
X46888732Y-29674017D01*
X47184964Y-29674275D01*
X47528740Y-29532230D01*
X47791989Y-29269440D01*
X47934635Y-28925912D01*
X47934959Y-28553946D01*
X47884797Y-28432544D01*
X47884797Y-27661783D01*
X48626579Y-26920000D01*
X56932463Y-26920000D01*
X56850162Y-27118201D01*
G36*
X82448400Y-38176200D02*
X82486051Y-38209725D01*
X82550000Y-38227000D01*
X89370160Y-38227000D01*
X89369752Y-38694187D01*
X89587757Y-39221800D01*
X89991077Y-39625824D01*
X90518309Y-39844750D01*
X91089187Y-39845248D01*
X91616800Y-39627243D01*
X92020824Y-39223923D01*
X92239750Y-38696691D01*
X92240160Y-38227000D01*
X92671548Y-38227000D01*
X94488000Y-39437968D01*
X94488000Y-44450000D01*
X94498006Y-44499410D01*
X94526447Y-44541035D01*
X94568841Y-44568315D01*
X94615000Y-44577000D01*
X105918000Y-44577000D01*
X105918000Y-53900000D01*
X64262000Y-53900000D01*
X64262000Y-50000000D01*
X89357560Y-50000000D01*
X89357560Y-51600000D01*
X89401838Y-51835317D01*
X89540910Y-52051441D01*
X89753110Y-52196431D01*
X90005000Y-52247440D01*
X91605000Y-52247440D01*
X91840317Y-52203162D01*
X92056441Y-52064090D01*
X92201431Y-51851890D01*
X92252440Y-51600000D01*
X92252440Y-51435000D01*
X98788173Y-51435000D01*
X98893600Y-51965017D01*
X99193830Y-52414343D01*
X99643156Y-52714573D01*
X100173173Y-52820000D01*
X101756827Y-52820000D01*
X102286844Y-52714573D01*
X102736170Y-52414343D01*
X103036400Y-51965017D01*
X103141827Y-51435000D01*
X103036400Y-50904983D01*
X102736170Y-50455657D01*
X102286844Y-50155427D01*
X102272489Y-50152572D01*
X102362349Y-50125972D01*
X102784145Y-49784540D01*
X103043173Y-49307684D01*
X103057318Y-49236185D01*
X102934656Y-49022000D01*
X101092000Y-49022000D01*
X101092000Y-49042000D01*
X100838000Y-49042000D01*
X100838000Y-49022000D01*
X98995344Y-49022000D01*
X98872682Y-49236185D01*
X98886827Y-49307684D01*
X99145855Y-49784540D01*
X99567651Y-50125972D01*
X99657511Y-50152572D01*
X99643156Y-50155427D01*
X99193830Y-50455657D01*
X98893600Y-50904983D01*
X98788173Y-51435000D01*
X92252440Y-51435000D01*
X92252440Y-50000000D01*
X92208162Y-49764683D01*
X92069090Y-49548559D01*
X91856890Y-49403569D01*
X91605000Y-49352560D01*
X90005000Y-49352560D01*
X89769683Y-49396838D01*
X89553559Y-49535910D01*
X89408569Y-49748110D01*
X89357560Y-50000000D01*
X64262000Y-50000000D01*
X64262000Y-48307745D01*
X89976861Y-48307745D01*
X90050995Y-48553864D01*
X90588223Y-48746965D01*
X91158454Y-48719778D01*
X91559005Y-48553864D01*
X91633139Y-48307745D01*
X90805000Y-47479605D01*
X89976861Y-48307745D01*
X64262000Y-48307745D01*
X64262000Y-47083223D01*
X89358035Y-47083223D01*
X89385222Y-47653454D01*
X89551136Y-48054005D01*
X89797255Y-48128139D01*
X90625395Y-47300000D01*
X90984605Y-47300000D01*
X91812745Y-48128139D01*
X92058864Y-48054005D01*
X92251965Y-47516777D01*
X92224778Y-46946546D01*
X92058864Y-46545995D01*
X91812745Y-46471861D01*
X90984605Y-47300000D01*
X90625395Y-47300000D01*
X89797255Y-46471861D01*
X89551136Y-46545995D01*
X89358035Y-47083223D01*
X64262000Y-47083223D01*
X64262000Y-46292255D01*
X89976861Y-46292255D01*
X90805000Y-47120395D01*
X91570394Y-46355000D01*
X98788173Y-46355000D01*
X98893600Y-46885017D01*
X99193830Y-47334343D01*
X99643156Y-47634573D01*
X99657511Y-47637428D01*
X99567651Y-47664028D01*
X99145855Y-48005460D01*
X98886827Y-48482316D01*
X98872682Y-48553815D01*
X98995344Y-48768000D01*
X100838000Y-48768000D01*
X100838000Y-48748000D01*
X101092000Y-48748000D01*
X101092000Y-48768000D01*
X102934656Y-48768000D01*
X103057318Y-48553815D01*
X103043173Y-48482316D01*
X102784145Y-48005460D01*
X102362349Y-47664028D01*
X102272489Y-47637428D01*
X102286844Y-47634573D01*
X102736170Y-47334343D01*
X103036400Y-46885017D01*
X103141827Y-46355000D01*
X103036400Y-45824983D01*
X102736170Y-45375657D01*
X102286844Y-45075427D01*
X101756827Y-44970000D01*
X100173173Y-44970000D01*
X99643156Y-45075427D01*
X99193830Y-45375657D01*
X98893600Y-45824983D01*
X98788173Y-46355000D01*
X91570394Y-46355000D01*
X91633139Y-46292255D01*
X91559005Y-46046136D01*
X91021777Y-45853035D01*
X90451546Y-45880222D01*
X90050995Y-46046136D01*
X89976861Y-46292255D01*
X64262000Y-46292255D01*
X64262000Y-43607111D01*
X64320167Y-43607162D01*
X64663943Y-43465117D01*
X64927192Y-43202327D01*
X65069838Y-42858799D01*
X65070162Y-42486833D01*
X65020000Y-42365431D01*
X65020000Y-42195750D01*
X89370000Y-42195750D01*
X89370000Y-42836309D01*
X89466673Y-43069698D01*
X89645301Y-43248327D01*
X89878690Y-43345000D01*
X90519250Y-43345000D01*
X90678000Y-43186250D01*
X90678000Y-42037000D01*
X90932000Y-42037000D01*
X90932000Y-43186250D01*
X91090750Y-43345000D01*
X91731310Y-43345000D01*
X91964699Y-43248327D01*
X92143327Y-43069698D01*
X92240000Y-42836309D01*
X92240000Y-42195750D01*
X92081250Y-42037000D01*
X90932000Y-42037000D01*
X90678000Y-42037000D01*
X89528750Y-42037000D01*
X89370000Y-42195750D01*
X65020000Y-42195750D01*
X65020000Y-40983691D01*
X89370000Y-40983691D01*
X89370000Y-41624250D01*
X89528750Y-41783000D01*
X90678000Y-41783000D01*
X90678000Y-40633750D01*
X90932000Y-40633750D01*
X90932000Y-41783000D01*
X92081250Y-41783000D01*
X92240000Y-41624250D01*
X92240000Y-40983691D01*
X92143327Y-40750302D01*
X91964699Y-40571673D01*
X91731310Y-40475000D01*
X91090750Y-40475000D01*
X90932000Y-40633750D01*
X90678000Y-40633750D01*
X90519250Y-40475000D01*
X89878690Y-40475000D01*
X89645301Y-40571673D01*
X89466673Y-40750302D01*
X89370000Y-40983691D01*
X65020000Y-40983691D01*
X65020000Y-38466580D01*
X65136579Y-38350000D01*
X74294995Y-38350000D01*
X74295000Y-38350001D01*
X74577484Y-38293810D01*
X74633675Y-38282633D01*
X74920790Y-38090790D01*
X74920791Y-38090789D01*
X75555787Y-37455792D01*
X75555790Y-37455790D01*
X75747633Y-37168675D01*
X75747634Y-37168674D01*
X75815001Y-36830000D01*
X75815000Y-36829995D01*
X75815000Y-35687000D01*
X80581500Y-35687000D01*
X82448400Y-38176200D01*
X82448400Y-38176200D01*
G37*
X82448400Y-38176200D02*
X82486051Y-38209725D01*
X82550000Y-38227000D01*
X89370160Y-38227000D01*
X89369752Y-38694187D01*
X89587757Y-39221800D01*
X89991077Y-39625824D01*
X90518309Y-39844750D01*
X91089187Y-39845248D01*
X91616800Y-39627243D01*
X92020824Y-39223923D01*
X92239750Y-38696691D01*
X92240160Y-38227000D01*
X92671548Y-38227000D01*
X94488000Y-39437968D01*
X94488000Y-44450000D01*
X94498006Y-44499410D01*
X94526447Y-44541035D01*
X94568841Y-44568315D01*
X94615000Y-44577000D01*
X105918000Y-44577000D01*
X105918000Y-53900000D01*
X64262000Y-53900000D01*
X64262000Y-50000000D01*
X89357560Y-50000000D01*
X89357560Y-51600000D01*
X89401838Y-51835317D01*
X89540910Y-52051441D01*
X89753110Y-52196431D01*
X90005000Y-52247440D01*
X91605000Y-52247440D01*
X91840317Y-52203162D01*
X92056441Y-52064090D01*
X92201431Y-51851890D01*
X92252440Y-51600000D01*
X92252440Y-51435000D01*
X98788173Y-51435000D01*
X98893600Y-51965017D01*
X99193830Y-52414343D01*
X99643156Y-52714573D01*
X100173173Y-52820000D01*
X101756827Y-52820000D01*
X102286844Y-52714573D01*
X102736170Y-52414343D01*
X103036400Y-51965017D01*
X103141827Y-51435000D01*
X103036400Y-50904983D01*
X102736170Y-50455657D01*
X102286844Y-50155427D01*
X102272489Y-50152572D01*
X102362349Y-50125972D01*
X102784145Y-49784540D01*
X103043173Y-49307684D01*
X103057318Y-49236185D01*
X102934656Y-49022000D01*
X101092000Y-49022000D01*
X101092000Y-49042000D01*
X100838000Y-49042000D01*
X100838000Y-49022000D01*
X98995344Y-49022000D01*
X98872682Y-49236185D01*
X98886827Y-49307684D01*
X99145855Y-49784540D01*
X99567651Y-50125972D01*
X99657511Y-50152572D01*
X99643156Y-50155427D01*
X99193830Y-50455657D01*
X98893600Y-50904983D01*
X98788173Y-51435000D01*
X92252440Y-51435000D01*
X92252440Y-50000000D01*
X92208162Y-49764683D01*
X92069090Y-49548559D01*
X91856890Y-49403569D01*
X91605000Y-49352560D01*
X90005000Y-49352560D01*
X89769683Y-49396838D01*
X89553559Y-49535910D01*
X89408569Y-49748110D01*
X89357560Y-50000000D01*
X64262000Y-50000000D01*
X64262000Y-48307745D01*
X89976861Y-48307745D01*
X90050995Y-48553864D01*
X90588223Y-48746965D01*
X91158454Y-48719778D01*
X91559005Y-48553864D01*
X91633139Y-48307745D01*
X90805000Y-47479605D01*
X89976861Y-48307745D01*
X64262000Y-48307745D01*
X64262000Y-47083223D01*
X89358035Y-47083223D01*
X89385222Y-47653454D01*
X89551136Y-48054005D01*
X89797255Y-48128139D01*
X90625395Y-47300000D01*
X90984605Y-47300000D01*
X91812745Y-48128139D01*
X92058864Y-48054005D01*
X92251965Y-47516777D01*
X92224778Y-46946546D01*
X92058864Y-46545995D01*
X91812745Y-46471861D01*
X90984605Y-47300000D01*
X90625395Y-47300000D01*
X89797255Y-46471861D01*
X89551136Y-46545995D01*
X89358035Y-47083223D01*
X64262000Y-47083223D01*
X64262000Y-46292255D01*
X89976861Y-46292255D01*
X90805000Y-47120395D01*
X91570394Y-46355000D01*
X98788173Y-46355000D01*
X98893600Y-46885017D01*
X99193830Y-47334343D01*
X99643156Y-47634573D01*
X99657511Y-47637428D01*
X99567651Y-47664028D01*
X99145855Y-48005460D01*
X98886827Y-48482316D01*
X98872682Y-48553815D01*
X98995344Y-48768000D01*
X100838000Y-48768000D01*
X100838000Y-48748000D01*
X101092000Y-48748000D01*
X101092000Y-48768000D01*
X102934656Y-48768000D01*
X103057318Y-48553815D01*
X103043173Y-48482316D01*
X102784145Y-48005460D01*
X102362349Y-47664028D01*
X102272489Y-47637428D01*
X102286844Y-47634573D01*
X102736170Y-47334343D01*
X103036400Y-46885017D01*
X103141827Y-46355000D01*
X103036400Y-45824983D01*
X102736170Y-45375657D01*
X102286844Y-45075427D01*
X101756827Y-44970000D01*
X100173173Y-44970000D01*
X99643156Y-45075427D01*
X99193830Y-45375657D01*
X98893600Y-45824983D01*
X98788173Y-46355000D01*
X91570394Y-46355000D01*
X91633139Y-46292255D01*
X91559005Y-46046136D01*
X91021777Y-45853035D01*
X90451546Y-45880222D01*
X90050995Y-46046136D01*
X89976861Y-46292255D01*
X64262000Y-46292255D01*
X64262000Y-43607111D01*
X64320167Y-43607162D01*
X64663943Y-43465117D01*
X64927192Y-43202327D01*
X65069838Y-42858799D01*
X65070162Y-42486833D01*
X65020000Y-42365431D01*
X65020000Y-42195750D01*
X89370000Y-42195750D01*
X89370000Y-42836309D01*
X89466673Y-43069698D01*
X89645301Y-43248327D01*
X89878690Y-43345000D01*
X90519250Y-43345000D01*
X90678000Y-43186250D01*
X90678000Y-42037000D01*
X90932000Y-42037000D01*
X90932000Y-43186250D01*
X91090750Y-43345000D01*
X91731310Y-43345000D01*
X91964699Y-43248327D01*
X92143327Y-43069698D01*
X92240000Y-42836309D01*
X92240000Y-42195750D01*
X92081250Y-42037000D01*
X90932000Y-42037000D01*
X90678000Y-42037000D01*
X89528750Y-42037000D01*
X89370000Y-42195750D01*
X65020000Y-42195750D01*
X65020000Y-40983691D01*
X89370000Y-40983691D01*
X89370000Y-41624250D01*
X89528750Y-41783000D01*
X90678000Y-41783000D01*
X90678000Y-40633750D01*
X90932000Y-40633750D01*
X90932000Y-41783000D01*
X92081250Y-41783000D01*
X92240000Y-41624250D01*
X92240000Y-40983691D01*
X92143327Y-40750302D01*
X91964699Y-40571673D01*
X91731310Y-40475000D01*
X91090750Y-40475000D01*
X90932000Y-40633750D01*
X90678000Y-40633750D01*
X90519250Y-40475000D01*
X89878690Y-40475000D01*
X89645301Y-40571673D01*
X89466673Y-40750302D01*
X89370000Y-40983691D01*
X65020000Y-40983691D01*
X65020000Y-38466580D01*
X65136579Y-38350000D01*
X74294995Y-38350000D01*
X74295000Y-38350001D01*
X74577484Y-38293810D01*
X74633675Y-38282633D01*
X74920790Y-38090790D01*
X74920791Y-38090789D01*
X75555787Y-37455792D01*
X75555790Y-37455790D01*
X75747633Y-37168675D01*
X75747634Y-37168674D01*
X75815001Y-36830000D01*
X75815000Y-36829995D01*
X75815000Y-35687000D01*
X80581500Y-35687000D01*
X82448400Y-38176200D01*
M02*
