G04 #@! TF.FileFunction,Legend,Bot*
%FSLAX46Y46*%
G04 Gerber Fmt 4.6, Leading zero omitted, Abs format (unit mm)*
G04 Created by KiCad (PCBNEW 4.0.7) date 03/18/18 13:51:34*
%MOMM*%
%LPD*%
G01*
G04 APERTURE LIST*
%ADD10C,0.100000*%
%ADD11C,0.150000*%
%ADD12C,0.120000*%
%ADD13C,0.130000*%
G04 APERTURE END LIST*
D10*
D11*
X19050000Y-19050000D02*
X19050000Y-54610000D01*
X118745000Y-19050000D02*
X19050000Y-19050000D01*
X118745000Y-54610000D02*
X118745000Y-19050000D01*
X19050000Y-54610000D02*
X118745000Y-54610000D01*
D12*
X40425000Y-31615000D02*
X40425000Y-30615000D01*
X42125000Y-30615000D02*
X42125000Y-31615000D01*
X44870000Y-30345000D02*
X44870000Y-29345000D01*
X46570000Y-29345000D02*
X46570000Y-30345000D01*
X36695000Y-28790000D02*
X35695000Y-28790000D01*
X35695000Y-27090000D02*
X36695000Y-27090000D01*
X44870000Y-26535000D02*
X44870000Y-25535000D01*
X46570000Y-25535000D02*
X46570000Y-26535000D01*
X32885000Y-28790000D02*
X31885000Y-28790000D01*
X31885000Y-27090000D02*
X32885000Y-27090000D01*
X41140000Y-23710000D02*
X40140000Y-23710000D01*
X40140000Y-22010000D02*
X41140000Y-22010000D01*
X35470000Y-31720000D02*
X34970000Y-31220000D01*
X35470000Y-34320000D02*
X34970000Y-34820000D01*
X30570000Y-31220000D02*
X31070000Y-31220000D01*
X30570000Y-31220000D02*
X30570000Y-31720000D01*
X30570000Y-34820000D02*
X31070000Y-34820000D01*
X30570000Y-34820000D02*
X30570000Y-34320000D01*
X37495000Y-25945000D02*
X37995000Y-25445000D01*
X34895000Y-25945000D02*
X34395000Y-25445000D01*
X37995000Y-21045000D02*
X37995000Y-21545000D01*
X37995000Y-21045000D02*
X37495000Y-21045000D01*
X34395000Y-21045000D02*
X34395000Y-21545000D01*
X34395000Y-21045000D02*
X34895000Y-21045000D01*
X40250000Y-31715000D02*
X40250000Y-30515000D01*
X38490000Y-30515000D02*
X38490000Y-31715000D01*
X44695000Y-30445000D02*
X44695000Y-29245000D01*
X42935000Y-29245000D02*
X42935000Y-30445000D01*
X36795000Y-28965000D02*
X35595000Y-28965000D01*
X35595000Y-30725000D02*
X36795000Y-30725000D01*
X44695000Y-26635000D02*
X44695000Y-25435000D01*
X42935000Y-25435000D02*
X42935000Y-26635000D01*
X32985000Y-28965000D02*
X31785000Y-28965000D01*
X31785000Y-30725000D02*
X32985000Y-30725000D01*
X41240000Y-23885000D02*
X40040000Y-23885000D01*
X40040000Y-25645000D02*
X41240000Y-25645000D01*
X31150000Y-37075000D02*
X32350000Y-37075000D01*
X32350000Y-35315000D02*
X31150000Y-35315000D01*
X32140000Y-24165000D02*
X32140000Y-25365000D01*
X33900000Y-25365000D02*
X33900000Y-24165000D01*
D13*
X42170286Y-29114714D02*
X42208381Y-29152810D01*
X42322667Y-29190905D01*
X42398857Y-29190905D01*
X42513143Y-29152810D01*
X42589334Y-29076619D01*
X42627429Y-29000429D01*
X42665524Y-28848048D01*
X42665524Y-28733762D01*
X42627429Y-28581381D01*
X42589334Y-28505190D01*
X42513143Y-28429000D01*
X42398857Y-28390905D01*
X42322667Y-28390905D01*
X42208381Y-28429000D01*
X42170286Y-28467095D01*
X41408381Y-29190905D02*
X41865524Y-29190905D01*
X41636953Y-29190905D02*
X41636953Y-28390905D01*
X41713143Y-28505190D01*
X41789334Y-28581381D01*
X41865524Y-28619476D01*
X40684571Y-28390905D02*
X41065524Y-28390905D01*
X41103619Y-28771857D01*
X41065524Y-28733762D01*
X40989333Y-28695667D01*
X40798857Y-28695667D01*
X40722667Y-28733762D01*
X40684571Y-28771857D01*
X40646476Y-28848048D01*
X40646476Y-29038524D01*
X40684571Y-29114714D01*
X40722667Y-29152810D01*
X40798857Y-29190905D01*
X40989333Y-29190905D01*
X41065524Y-29152810D01*
X41103619Y-29114714D01*
D11*
X47728143Y-29964143D02*
X47775762Y-29916524D01*
X47823381Y-29773667D01*
X47823381Y-29678429D01*
X47775762Y-29535571D01*
X47680524Y-29440333D01*
X47585286Y-29392714D01*
X47394810Y-29345095D01*
X47251952Y-29345095D01*
X47061476Y-29392714D01*
X46966238Y-29440333D01*
X46871000Y-29535571D01*
X46823381Y-29678429D01*
X46823381Y-29773667D01*
X46871000Y-29916524D01*
X46918619Y-29964143D01*
X47823381Y-30916524D02*
X47823381Y-30345095D01*
X47823381Y-30630809D02*
X46823381Y-30630809D01*
X46966238Y-30535571D01*
X47061476Y-30440333D01*
X47109095Y-30345095D01*
X46823381Y-31773667D02*
X46823381Y-31583190D01*
X46871000Y-31487952D01*
X46918619Y-31440333D01*
X47061476Y-31345095D01*
X47251952Y-31297476D01*
X47632905Y-31297476D01*
X47728143Y-31345095D01*
X47775762Y-31392714D01*
X47823381Y-31487952D01*
X47823381Y-31678429D01*
X47775762Y-31773667D01*
X47728143Y-31821286D01*
X47632905Y-31868905D01*
X47394810Y-31868905D01*
X47299571Y-31821286D01*
X47251952Y-31773667D01*
X47204333Y-31678429D01*
X47204333Y-31487952D01*
X47251952Y-31392714D01*
X47299571Y-31345095D01*
X47394810Y-31297476D01*
D13*
X39630286Y-27844714D02*
X39668381Y-27882810D01*
X39782667Y-27920905D01*
X39858857Y-27920905D01*
X39973143Y-27882810D01*
X40049334Y-27806619D01*
X40087429Y-27730429D01*
X40125524Y-27578048D01*
X40125524Y-27463762D01*
X40087429Y-27311381D01*
X40049334Y-27235190D01*
X39973143Y-27159000D01*
X39858857Y-27120905D01*
X39782667Y-27120905D01*
X39668381Y-27159000D01*
X39630286Y-27197095D01*
X38868381Y-27920905D02*
X39325524Y-27920905D01*
X39096953Y-27920905D02*
X39096953Y-27120905D01*
X39173143Y-27235190D01*
X39249334Y-27311381D01*
X39325524Y-27349476D01*
X38601714Y-27120905D02*
X38068381Y-27120905D01*
X38411238Y-27920905D01*
D11*
X46077143Y-22090143D02*
X46124762Y-22042524D01*
X46172381Y-21899667D01*
X46172381Y-21804429D01*
X46124762Y-21661571D01*
X46029524Y-21566333D01*
X45934286Y-21518714D01*
X45743810Y-21471095D01*
X45600952Y-21471095D01*
X45410476Y-21518714D01*
X45315238Y-21566333D01*
X45220000Y-21661571D01*
X45172381Y-21804429D01*
X45172381Y-21899667D01*
X45220000Y-22042524D01*
X45267619Y-22090143D01*
X46172381Y-23042524D02*
X46172381Y-22471095D01*
X46172381Y-22756809D02*
X45172381Y-22756809D01*
X45315238Y-22661571D01*
X45410476Y-22566333D01*
X45458095Y-22471095D01*
X45600952Y-23613952D02*
X45553333Y-23518714D01*
X45505714Y-23471095D01*
X45410476Y-23423476D01*
X45362857Y-23423476D01*
X45267619Y-23471095D01*
X45220000Y-23518714D01*
X45172381Y-23613952D01*
X45172381Y-23804429D01*
X45220000Y-23899667D01*
X45267619Y-23947286D01*
X45362857Y-23994905D01*
X45410476Y-23994905D01*
X45505714Y-23947286D01*
X45553333Y-23899667D01*
X45600952Y-23804429D01*
X45600952Y-23613952D01*
X45648571Y-23518714D01*
X45696190Y-23471095D01*
X45791429Y-23423476D01*
X45981905Y-23423476D01*
X46077143Y-23471095D01*
X46124762Y-23518714D01*
X46172381Y-23613952D01*
X46172381Y-23804429D01*
X46124762Y-23899667D01*
X46077143Y-23947286D01*
X45981905Y-23994905D01*
X45791429Y-23994905D01*
X45696190Y-23947286D01*
X45648571Y-23899667D01*
X45600952Y-23804429D01*
D13*
X30867286Y-26828714D02*
X30905381Y-26866810D01*
X31019667Y-26904905D01*
X31095857Y-26904905D01*
X31210143Y-26866810D01*
X31286334Y-26790619D01*
X31324429Y-26714429D01*
X31362524Y-26562048D01*
X31362524Y-26447762D01*
X31324429Y-26295381D01*
X31286334Y-26219190D01*
X31210143Y-26143000D01*
X31095857Y-26104905D01*
X31019667Y-26104905D01*
X30905381Y-26143000D01*
X30867286Y-26181095D01*
X30105381Y-26904905D02*
X30562524Y-26904905D01*
X30333953Y-26904905D02*
X30333953Y-26104905D01*
X30410143Y-26219190D01*
X30486334Y-26295381D01*
X30562524Y-26333476D01*
X29724429Y-26904905D02*
X29572048Y-26904905D01*
X29495857Y-26866810D01*
X29457762Y-26828714D01*
X29381571Y-26714429D01*
X29343476Y-26562048D01*
X29343476Y-26257286D01*
X29381571Y-26181095D01*
X29419667Y-26143000D01*
X29495857Y-26104905D01*
X29648238Y-26104905D01*
X29724429Y-26143000D01*
X29762524Y-26181095D01*
X29800619Y-26257286D01*
X29800619Y-26447762D01*
X29762524Y-26523952D01*
X29724429Y-26562048D01*
X29648238Y-26600143D01*
X29495857Y-26600143D01*
X29419667Y-26562048D01*
X29381571Y-26523952D01*
X29343476Y-26447762D01*
X39782714Y-20186714D02*
X39820810Y-20148619D01*
X39858905Y-20034333D01*
X39858905Y-19958143D01*
X39820810Y-19843857D01*
X39744619Y-19767666D01*
X39668429Y-19729571D01*
X39516048Y-19691476D01*
X39401762Y-19691476D01*
X39249381Y-19729571D01*
X39173190Y-19767666D01*
X39097000Y-19843857D01*
X39058905Y-19958143D01*
X39058905Y-20034333D01*
X39097000Y-20148619D01*
X39135095Y-20186714D01*
X39135095Y-20491476D02*
X39097000Y-20529571D01*
X39058905Y-20605762D01*
X39058905Y-20796238D01*
X39097000Y-20872428D01*
X39135095Y-20910524D01*
X39211286Y-20948619D01*
X39287476Y-20948619D01*
X39401762Y-20910524D01*
X39858905Y-20453381D01*
X39858905Y-20948619D01*
X39058905Y-21443857D02*
X39058905Y-21520048D01*
X39097000Y-21596238D01*
X39135095Y-21634333D01*
X39211286Y-21672429D01*
X39363667Y-21710524D01*
X39554143Y-21710524D01*
X39706524Y-21672429D01*
X39782714Y-21634333D01*
X39820810Y-21596238D01*
X39858905Y-21520048D01*
X39858905Y-21443857D01*
X39820810Y-21367667D01*
X39782714Y-21329571D01*
X39706524Y-21291476D01*
X39554143Y-21253381D01*
X39363667Y-21253381D01*
X39211286Y-21291476D01*
X39135095Y-21329571D01*
X39097000Y-21367667D01*
X39058905Y-21443857D01*
D11*
X36933143Y-33139143D02*
X36980762Y-33091524D01*
X37028381Y-32948667D01*
X37028381Y-32853429D01*
X36980762Y-32710571D01*
X36885524Y-32615333D01*
X36790286Y-32567714D01*
X36599810Y-32520095D01*
X36456952Y-32520095D01*
X36266476Y-32567714D01*
X36171238Y-32615333D01*
X36076000Y-32710571D01*
X36028381Y-32853429D01*
X36028381Y-32948667D01*
X36076000Y-33091524D01*
X36123619Y-33139143D01*
X36123619Y-33520095D02*
X36076000Y-33567714D01*
X36028381Y-33662952D01*
X36028381Y-33901048D01*
X36076000Y-33996286D01*
X36123619Y-34043905D01*
X36218857Y-34091524D01*
X36314095Y-34091524D01*
X36456952Y-34043905D01*
X37028381Y-33472476D01*
X37028381Y-34091524D01*
X37028381Y-35043905D02*
X37028381Y-34472476D01*
X37028381Y-34758190D02*
X36028381Y-34758190D01*
X36171238Y-34662952D01*
X36266476Y-34567714D01*
X36314095Y-34472476D01*
X34012143Y-20566143D02*
X34059762Y-20518524D01*
X34107381Y-20375667D01*
X34107381Y-20280429D01*
X34059762Y-20137571D01*
X33964524Y-20042333D01*
X33869286Y-19994714D01*
X33678810Y-19947095D01*
X33535952Y-19947095D01*
X33345476Y-19994714D01*
X33250238Y-20042333D01*
X33155000Y-20137571D01*
X33107381Y-20280429D01*
X33107381Y-20375667D01*
X33155000Y-20518524D01*
X33202619Y-20566143D01*
X33202619Y-20947095D02*
X33155000Y-20994714D01*
X33107381Y-21089952D01*
X33107381Y-21328048D01*
X33155000Y-21423286D01*
X33202619Y-21470905D01*
X33297857Y-21518524D01*
X33393095Y-21518524D01*
X33535952Y-21470905D01*
X34107381Y-20899476D01*
X34107381Y-21518524D01*
X33202619Y-21899476D02*
X33155000Y-21947095D01*
X33107381Y-22042333D01*
X33107381Y-22280429D01*
X33155000Y-22375667D01*
X33202619Y-22423286D01*
X33297857Y-22470905D01*
X33393095Y-22470905D01*
X33535952Y-22423286D01*
X34107381Y-21851857D01*
X34107381Y-22470905D01*
D13*
X39757286Y-29190905D02*
X40023953Y-28809952D01*
X40214429Y-29190905D02*
X40214429Y-28390905D01*
X39909667Y-28390905D01*
X39833476Y-28429000D01*
X39795381Y-28467095D01*
X39757286Y-28543286D01*
X39757286Y-28657571D01*
X39795381Y-28733762D01*
X39833476Y-28771857D01*
X39909667Y-28809952D01*
X40214429Y-28809952D01*
X38995381Y-29190905D02*
X39452524Y-29190905D01*
X39223953Y-29190905D02*
X39223953Y-28390905D01*
X39300143Y-28505190D01*
X39376334Y-28581381D01*
X39452524Y-28619476D01*
X38233476Y-29190905D02*
X38690619Y-29190905D01*
X38462048Y-29190905D02*
X38462048Y-28390905D01*
X38538238Y-28505190D01*
X38614429Y-28581381D01*
X38690619Y-28619476D01*
X44049905Y-31997714D02*
X43668952Y-31731047D01*
X44049905Y-31540571D02*
X43249905Y-31540571D01*
X43249905Y-31845333D01*
X43288000Y-31921524D01*
X43326095Y-31959619D01*
X43402286Y-31997714D01*
X43516571Y-31997714D01*
X43592762Y-31959619D01*
X43630857Y-31921524D01*
X43668952Y-31845333D01*
X43668952Y-31540571D01*
X44049905Y-32759619D02*
X44049905Y-32302476D01*
X44049905Y-32531047D02*
X43249905Y-32531047D01*
X43364190Y-32454857D01*
X43440381Y-32378666D01*
X43478476Y-32302476D01*
X43326095Y-33064381D02*
X43288000Y-33102476D01*
X43249905Y-33178667D01*
X43249905Y-33369143D01*
X43288000Y-33445333D01*
X43326095Y-33483429D01*
X43402286Y-33521524D01*
X43478476Y-33521524D01*
X43592762Y-33483429D01*
X44049905Y-33026286D01*
X44049905Y-33521524D01*
X37471286Y-31857905D02*
X37737953Y-31476952D01*
X37928429Y-31857905D02*
X37928429Y-31057905D01*
X37623667Y-31057905D01*
X37547476Y-31096000D01*
X37509381Y-31134095D01*
X37471286Y-31210286D01*
X37471286Y-31324571D01*
X37509381Y-31400762D01*
X37547476Y-31438857D01*
X37623667Y-31476952D01*
X37928429Y-31476952D01*
X36709381Y-31857905D02*
X37166524Y-31857905D01*
X36937953Y-31857905D02*
X36937953Y-31057905D01*
X37014143Y-31172190D01*
X37090334Y-31248381D01*
X37166524Y-31286476D01*
X36442714Y-31057905D02*
X35947476Y-31057905D01*
X36214143Y-31362667D01*
X36099857Y-31362667D01*
X36023667Y-31400762D01*
X35985571Y-31438857D01*
X35947476Y-31515048D01*
X35947476Y-31705524D01*
X35985571Y-31781714D01*
X36023667Y-31819810D01*
X36099857Y-31857905D01*
X36328429Y-31857905D01*
X36404619Y-31819810D01*
X36442714Y-31781714D01*
D11*
X44267381Y-22344143D02*
X43791190Y-22010809D01*
X44267381Y-21772714D02*
X43267381Y-21772714D01*
X43267381Y-22153667D01*
X43315000Y-22248905D01*
X43362619Y-22296524D01*
X43457857Y-22344143D01*
X43600714Y-22344143D01*
X43695952Y-22296524D01*
X43743571Y-22248905D01*
X43791190Y-22153667D01*
X43791190Y-21772714D01*
X44267381Y-23296524D02*
X44267381Y-22725095D01*
X44267381Y-23010809D02*
X43267381Y-23010809D01*
X43410238Y-22915571D01*
X43505476Y-22820333D01*
X43553095Y-22725095D01*
X43600714Y-24153667D02*
X44267381Y-24153667D01*
X43219762Y-23915571D02*
X43934048Y-23677476D01*
X43934048Y-24296524D01*
D13*
X30232286Y-30968905D02*
X30498953Y-30587952D01*
X30689429Y-30968905D02*
X30689429Y-30168905D01*
X30384667Y-30168905D01*
X30308476Y-30207000D01*
X30270381Y-30245095D01*
X30232286Y-30321286D01*
X30232286Y-30435571D01*
X30270381Y-30511762D01*
X30308476Y-30549857D01*
X30384667Y-30587952D01*
X30689429Y-30587952D01*
X29470381Y-30968905D02*
X29927524Y-30968905D01*
X29698953Y-30968905D02*
X29698953Y-30168905D01*
X29775143Y-30283190D01*
X29851334Y-30359381D01*
X29927524Y-30397476D01*
X28746571Y-30168905D02*
X29127524Y-30168905D01*
X29165619Y-30549857D01*
X29127524Y-30511762D01*
X29051333Y-30473667D01*
X28860857Y-30473667D01*
X28784667Y-30511762D01*
X28746571Y-30549857D01*
X28708476Y-30626048D01*
X28708476Y-30816524D01*
X28746571Y-30892714D01*
X28784667Y-30930810D01*
X28860857Y-30968905D01*
X29051333Y-30968905D01*
X29127524Y-30930810D01*
X29165619Y-30892714D01*
D11*
X41155857Y-26868381D02*
X41489191Y-26392190D01*
X41727286Y-26868381D02*
X41727286Y-25868381D01*
X41346333Y-25868381D01*
X41251095Y-25916000D01*
X41203476Y-25963619D01*
X41155857Y-26058857D01*
X41155857Y-26201714D01*
X41203476Y-26296952D01*
X41251095Y-26344571D01*
X41346333Y-26392190D01*
X41727286Y-26392190D01*
X40203476Y-26868381D02*
X40774905Y-26868381D01*
X40489191Y-26868381D02*
X40489191Y-25868381D01*
X40584429Y-26011238D01*
X40679667Y-26106476D01*
X40774905Y-26154095D01*
X39346333Y-25868381D02*
X39536810Y-25868381D01*
X39632048Y-25916000D01*
X39679667Y-25963619D01*
X39774905Y-26106476D01*
X39822524Y-26296952D01*
X39822524Y-26677905D01*
X39774905Y-26773143D01*
X39727286Y-26820762D01*
X39632048Y-26868381D01*
X39441571Y-26868381D01*
X39346333Y-26820762D01*
X39298714Y-26773143D01*
X39251095Y-26677905D01*
X39251095Y-26439810D01*
X39298714Y-26344571D01*
X39346333Y-26296952D01*
X39441571Y-26249333D01*
X39632048Y-26249333D01*
X39727286Y-26296952D01*
X39774905Y-26344571D01*
X39822524Y-26439810D01*
X35567857Y-36774381D02*
X35901191Y-36298190D01*
X36139286Y-36774381D02*
X36139286Y-35774381D01*
X35758333Y-35774381D01*
X35663095Y-35822000D01*
X35615476Y-35869619D01*
X35567857Y-35964857D01*
X35567857Y-36107714D01*
X35615476Y-36202952D01*
X35663095Y-36250571D01*
X35758333Y-36298190D01*
X36139286Y-36298190D01*
X34615476Y-36774381D02*
X35186905Y-36774381D01*
X34901191Y-36774381D02*
X34901191Y-35774381D01*
X34996429Y-35917238D01*
X35091667Y-36012476D01*
X35186905Y-36060095D01*
X34282143Y-35774381D02*
X33615476Y-35774381D01*
X34044048Y-36774381D01*
X31821381Y-22344143D02*
X31345190Y-22010809D01*
X31821381Y-21772714D02*
X30821381Y-21772714D01*
X30821381Y-22153667D01*
X30869000Y-22248905D01*
X30916619Y-22296524D01*
X31011857Y-22344143D01*
X31154714Y-22344143D01*
X31249952Y-22296524D01*
X31297571Y-22248905D01*
X31345190Y-22153667D01*
X31345190Y-21772714D01*
X31821381Y-23296524D02*
X31821381Y-22725095D01*
X31821381Y-23010809D02*
X30821381Y-23010809D01*
X30964238Y-22915571D01*
X31059476Y-22820333D01*
X31107095Y-22725095D01*
X31249952Y-23867952D02*
X31202333Y-23772714D01*
X31154714Y-23725095D01*
X31059476Y-23677476D01*
X31011857Y-23677476D01*
X30916619Y-23725095D01*
X30869000Y-23772714D01*
X30821381Y-23867952D01*
X30821381Y-24058429D01*
X30869000Y-24153667D01*
X30916619Y-24201286D01*
X31011857Y-24248905D01*
X31059476Y-24248905D01*
X31154714Y-24201286D01*
X31202333Y-24153667D01*
X31249952Y-24058429D01*
X31249952Y-23867952D01*
X31297571Y-23772714D01*
X31345190Y-23725095D01*
X31440429Y-23677476D01*
X31630905Y-23677476D01*
X31726143Y-23725095D01*
X31773762Y-23772714D01*
X31821381Y-23867952D01*
X31821381Y-24058429D01*
X31773762Y-24153667D01*
X31726143Y-24201286D01*
X31630905Y-24248905D01*
X31440429Y-24248905D01*
X31345190Y-24201286D01*
X31297571Y-24153667D01*
X31249952Y-24058429D01*
M02*
