M48
;DRILL file {KiCad 4.0.7} date 03/18/18 13:51:35
;FORMAT={-:-/ absolute / inch / decimal}
FMAT,2
INCH,TZ
T1C0.016
T2C0.028
T3C0.031
T4C0.039
T5C0.060
%
G90
G05
M72
T1
X0.8Y-0.8
X0.8Y-0.95
X0.8Y-1.05
X0.8Y-1.2
X0.8Y-1.35
X0.8Y-1.5
X0.8Y-1.65
X0.8Y-1.8
X0.8Y-1.95
X0.8Y-2.1
X0.925Y-1.025
X0.95Y-0.8
X0.95Y-1.35
X0.95Y-1.475
X1.Y-1.35
X1.02Y-1.445
X1.025Y-0.9
X1.025Y-1.
X1.025Y-1.65
X1.025Y-1.8
X1.025Y-1.95
X1.025Y-2.1
X1.03Y-1.11
X1.1Y-0.8
X1.175Y-0.95
X1.175Y-1.125
X1.175Y-1.175
X1.175Y-1.8
X1.175Y-1.95
X1.175Y-2.1
X1.25Y-0.8
X1.25Y-0.975
X1.325Y-2.1
X1.35Y-1.875
X1.4Y-0.8
X1.425Y-1.825
X1.425Y-1.9
X1.475Y-2.1
X1.6Y-0.8278
X1.625Y-2.1
X1.65Y-1.575
X1.65Y-1.7
X1.65Y-1.8
X1.685Y-1.27
X1.725Y-1.55
X1.725Y-1.6
X1.755Y-1.3
X1.775Y-0.825
X1.775Y-2.1
X1.8Y-1.35
X1.8Y-1.5
X1.85Y-1.6
X1.85Y-1.75
X1.85Y-1.9
X1.8504Y-1.1315
X1.875Y-0.8
X1.925Y-1.9
X1.925Y-2.
X1.925Y-2.1
X1.93Y-1.45
X2.Y-0.8
X2.025Y-1.725
X2.075Y-1.3
X2.075Y-1.4
X2.075Y-2.025
X2.075Y-2.1
X2.125Y-1.6
X2.15Y-0.8
X2.15Y-1.875
X2.155Y-1.41
X2.225Y-1.
X2.225Y-1.8
X2.25Y-1.2
X2.25Y-1.925
X2.275Y-1.075
X2.275Y-1.6
X2.3Y-0.8
X2.3Y-1.825
X2.325Y-0.95
X2.325Y-1.15
X2.325Y-1.3
X2.325Y-1.41
X2.35Y-0.85
X2.4Y-1.6
X2.4Y-1.975
X2.45Y-1.3
X2.475Y-1.425
X2.475Y-1.975
X2.525Y-1.68
X2.55Y-1.875
X2.575Y-1.325
X2.575Y-1.375
X2.6Y-1.65
X2.6Y-1.75
X2.64Y-0.8
X2.64Y-1.11
X2.65Y-1.425
X2.65Y-1.95
X2.675Y-0.9
X2.7Y-1.36
X2.78Y-1.23
X2.8Y-1.36
X2.8Y-1.95
X2.8Y-2.1
X2.8008Y-1.65
X2.825Y-1.05
X2.875Y-1.15
X2.9Y-1.36
X2.95Y-0.975
X2.95Y-1.225
X2.95Y-1.29
X2.95Y-1.65
X2.95Y-2.1
X2.98Y-0.785
X3.05Y-1.325
X3.075Y-1.075
X3.1Y-0.975
X3.1Y-1.65
X3.1Y-1.8
X3.1Y-2.1
X3.15Y-1.25
X3.2Y-0.8
X3.2Y-0.95
X3.2Y-1.1
X3.2Y-1.325
X3.225Y-1.7
X3.25Y-1.8
X3.25Y-2.1
X3.275Y-0.8
X3.275Y-0.95
X3.275Y-1.1
X3.275Y-1.4
X3.325Y-1.7
X3.4Y-1.8
X3.4Y-2.1
X3.425Y-1.1
X3.425Y-1.4
X3.425Y-1.6
X3.425Y-1.7
X3.55Y-1.125
X3.55Y-1.8
X3.55Y-1.8
X3.55Y-2.1
X3.575Y-1.4
X3.65Y-1.6
X3.7Y-1.25
X3.7Y-1.85
X3.7Y-1.95
X3.7Y-2.1
X3.725Y-1.4
X3.75Y-1.04
X3.75Y-1.13
X3.8Y-1.15
X3.8Y-1.375
X3.8459Y-0.8356
X3.85Y-1.85
X3.85Y-1.95
X3.85Y-2.1
X3.875Y-0.975
X3.9Y-0.8
X3.975Y-1.2
X3.975Y-1.325
X4.025Y-0.975
X4.025Y-1.275
X4.125Y-1.225
X4.125Y-1.325
X4.125Y-1.8
X4.125Y-1.9
X4.125Y-1.975
X4.125Y-2.075
X4.175Y-0.8
X4.175Y-0.95
X4.175Y-1.1
X4.325Y-0.95
X4.325Y-1.1
X4.35Y-1.175
X4.35Y-1.325
X4.385Y-0.865
X4.475Y-0.8
X4.475Y-1.1
X4.475Y-1.175
X4.625Y-0.8
X4.625Y-0.95
X4.625Y-1.1
X4.625Y-1.175
T2
X4.175Y-1.5
X4.375Y-1.5
T3
X3.575Y-1.5122
X3.575Y-1.65
X3.575Y-1.8622
X3.575Y-2.
X4.325Y-1.625
X4.325Y-1.7037
T4
X0.875Y-1.175
X0.875Y-1.275
X0.875Y-1.375
X1.075Y-1.175
X1.075Y-1.275
X1.075Y-1.375
X1.175Y-1.6
X1.275Y-1.6
X1.275Y-1.75
X1.375Y-1.6
X1.375Y-1.75
X1.55Y-1.375
X1.55Y-1.475
X1.725Y-1.375
X1.725Y-1.475
X1.9Y-1.325
X2.Y-1.325
X2.175Y-1.5
X2.275Y-1.5
X2.375Y-1.5
X2.75Y-0.87
X2.85Y-0.87
X3.675Y-0.875
X3.775Y-0.875
X3.975Y-1.525
X3.975Y-1.625
X3.975Y-1.825
X3.975Y-1.925
X3.975Y-2.025
X4.135Y-0.88
X4.235Y-0.88
T5
X1.3Y-2.
X1.5Y-2.
X1.7Y-2.
T0
M30
