G04 #@! TF.FileFunction,Soldermask,Top*
%FSLAX46Y46*%
G04 Gerber Fmt 4.6, Leading zero omitted, Abs format (unit mm)*
G04 Created by KiCad (PCBNEW 4.0.7) date 03/18/18 13:51:34*
%MOMM*%
%LPD*%
G01*
G04 APERTURE LIST*
%ADD10C,0.100000*%
%ADD11C,0.150000*%
%ADD12R,2.100000X2.100000*%
%ADD13O,2.100000X2.100000*%
%ADD14C,3.100000*%
%ADD15R,2.000000X2.000000*%
%ADD16C,2.000000*%
%ADD17R,1.650000X1.400000*%
%ADD18R,2.900000X1.400000*%
%ADD19R,1.400000X1.650000*%
%ADD20R,1.300000X1.200000*%
%ADD21R,1.200000X1.300000*%
%ADD22R,1.700000X1.100000*%
%ADD23R,1.100000X1.700000*%
%ADD24R,1.400000X3.600000*%
%ADD25R,3.400000X1.900000*%
%ADD26O,3.400000X1.900000*%
%ADD27R,1.290000X0.820000*%
%ADD28R,1.240000X1.340000*%
%ADD29R,1.950000X1.000000*%
%ADD30R,3.400000X3.400000*%
%ADD31C,3.400000*%
%ADD32R,1.800000X0.800000*%
%ADD33C,1.200000*%
%ADD34R,2.300000X2.200000*%
%ADD35R,1.797000X1.543000*%
%ADD36R,2.051000X2.406600*%
%ADD37C,1.800000*%
%ADD38O,1.800000X1.800000*%
G04 APERTURE END LIST*
D10*
D11*
X19050000Y-19050000D02*
X19050000Y-54610000D01*
X118745000Y-19050000D02*
X19050000Y-19050000D01*
X118745000Y-54610000D02*
X118745000Y-19050000D01*
X19050000Y-54610000D02*
X118745000Y-54610000D01*
D12*
X60325000Y-38100000D03*
D13*
X57785000Y-38100000D03*
X55245000Y-38100000D03*
D14*
X114935000Y-50800000D03*
X22860000Y-50800000D03*
X22860000Y-22860000D03*
D15*
X109855000Y-41275000D03*
D16*
X109855000Y-43275000D03*
D17*
X105410000Y-40910000D03*
X105410000Y-42910000D03*
D15*
X90805000Y-50800000D03*
D16*
X90805000Y-47300000D03*
D15*
X90805000Y-41910000D03*
D16*
X90805000Y-38410000D03*
D18*
X84455000Y-50395000D03*
X84455000Y-47395000D03*
X84455000Y-41505000D03*
X84455000Y-38505000D03*
D17*
X81915000Y-49260000D03*
X81915000Y-47260000D03*
X81915000Y-41640000D03*
X81915000Y-39640000D03*
X73025000Y-45990000D03*
X73025000Y-47990000D03*
X73025000Y-39735000D03*
X73025000Y-37735000D03*
D18*
X68580000Y-45950000D03*
X68580000Y-42950000D03*
X68580000Y-40870000D03*
X68580000Y-37870000D03*
D17*
X58420000Y-44450000D03*
X58420000Y-42450000D03*
D19*
X53070000Y-48895000D03*
X51070000Y-48895000D03*
D17*
X42545000Y-21225000D03*
X42545000Y-23225000D03*
X42545000Y-25035000D03*
X42545000Y-27035000D03*
X42545000Y-28845000D03*
X42545000Y-30845000D03*
D19*
X49800000Y-21590000D03*
X51800000Y-21590000D03*
D17*
X56515000Y-23860000D03*
X56515000Y-21860000D03*
X54610000Y-23860000D03*
X54610000Y-21860000D03*
X64135000Y-30115000D03*
X64135000Y-32115000D03*
X66675000Y-24400000D03*
X66675000Y-26400000D03*
X78105000Y-21225000D03*
X78105000Y-23225000D03*
X75565000Y-21225000D03*
X75565000Y-23225000D03*
D19*
X69485000Y-33020000D03*
X71485000Y-33020000D03*
D17*
X87630000Y-30115000D03*
X87630000Y-32115000D03*
X90170000Y-24400000D03*
X90170000Y-26400000D03*
X101600000Y-21225000D03*
X101600000Y-23225000D03*
X99060000Y-21225000D03*
X99060000Y-23225000D03*
D19*
X92980000Y-33020000D03*
X94980000Y-33020000D03*
X108315000Y-31115000D03*
X106315000Y-31115000D03*
D20*
X38370000Y-25085000D03*
X38370000Y-26985000D03*
X40370000Y-26035000D03*
X36560000Y-26985000D03*
X36560000Y-25085000D03*
X34560000Y-26035000D03*
D21*
X38415000Y-21225000D03*
X36515000Y-21225000D03*
X37465000Y-23225000D03*
X36515000Y-30845000D03*
X38415000Y-30845000D03*
X37465000Y-28845000D03*
D12*
X32385000Y-44450000D03*
D13*
X34925000Y-44450000D03*
D12*
X34925000Y-40640000D03*
D13*
X32385000Y-40640000D03*
X29845000Y-40640000D03*
D12*
X39370000Y-37465000D03*
D13*
X39370000Y-34925000D03*
D12*
X43815000Y-34925000D03*
D13*
X43815000Y-37465000D03*
D12*
X27305000Y-29845000D03*
D13*
X27305000Y-32385000D03*
X27305000Y-34925000D03*
D12*
X22225000Y-29845000D03*
D13*
X22225000Y-32385000D03*
X22225000Y-34925000D03*
D12*
X48260000Y-33655000D03*
D13*
X50800000Y-33655000D03*
D22*
X71120000Y-46040000D03*
X71120000Y-47940000D03*
X73025000Y-49850000D03*
X73025000Y-51750000D03*
X73025000Y-43495000D03*
X73025000Y-41595000D03*
X71120000Y-39685000D03*
X71120000Y-37785000D03*
X64770000Y-38105000D03*
X64770000Y-40005000D03*
X62230000Y-42550000D03*
X62230000Y-44450000D03*
X60325000Y-48260000D03*
X60325000Y-46360000D03*
X60325000Y-44450000D03*
X60325000Y-42550000D03*
D23*
X52070000Y-39370000D03*
X50170000Y-39370000D03*
X31430000Y-22225000D03*
X29530000Y-22225000D03*
D22*
X27940000Y-23810000D03*
X27940000Y-21910000D03*
X27940000Y-25085000D03*
X27940000Y-26985000D03*
X30480000Y-34605000D03*
X30480000Y-32705000D03*
X32385000Y-32705000D03*
X32385000Y-34605000D03*
X32385000Y-29530000D03*
X32385000Y-31430000D03*
D23*
X34605000Y-22225000D03*
X32705000Y-22225000D03*
D22*
X32385000Y-26355000D03*
X32385000Y-28255000D03*
D23*
X51750000Y-30480000D03*
X49850000Y-30480000D03*
X48575000Y-30480000D03*
X46675000Y-30480000D03*
X55565000Y-33020000D03*
X57465000Y-33020000D03*
D24*
X61520000Y-29845000D03*
X55320000Y-29845000D03*
D22*
X66675000Y-30165000D03*
X66675000Y-32065000D03*
X61595000Y-24450000D03*
X61595000Y-26350000D03*
X64135000Y-24450000D03*
X64135000Y-26350000D03*
X61595000Y-20640000D03*
X61595000Y-22540000D03*
X64135000Y-20640000D03*
X64135000Y-22540000D03*
D24*
X85015000Y-29845000D03*
X78815000Y-29845000D03*
D22*
X90170000Y-30165000D03*
X90170000Y-32065000D03*
X85090000Y-24450000D03*
X85090000Y-26350000D03*
X87630000Y-24450000D03*
X87630000Y-26350000D03*
X85090000Y-20640000D03*
X85090000Y-22540000D03*
X87630000Y-20640000D03*
X87630000Y-22540000D03*
D24*
X108510000Y-27940000D03*
X102310000Y-27940000D03*
D23*
X108265000Y-33655000D03*
X106365000Y-33655000D03*
D25*
X100965000Y-38735000D03*
D26*
X100965000Y-41275000D03*
X100965000Y-46355000D03*
X100965000Y-48895000D03*
X100965000Y-51435000D03*
D27*
X75365000Y-48555000D03*
X75365000Y-49205000D03*
X75365000Y-49855000D03*
X75365000Y-50505000D03*
X79575000Y-50505000D03*
X79575000Y-49855000D03*
X79575000Y-49205000D03*
X79575000Y-48555000D03*
D28*
X77890000Y-50000000D03*
X77890000Y-49060000D03*
X77050000Y-50000000D03*
X77050000Y-49060000D03*
D27*
X75365000Y-38395000D03*
X75365000Y-39045000D03*
X75365000Y-39695000D03*
X75365000Y-40345000D03*
X79575000Y-40345000D03*
X79575000Y-39695000D03*
X79575000Y-39045000D03*
X79575000Y-38395000D03*
D28*
X77890000Y-39840000D03*
X77890000Y-38900000D03*
X77050000Y-39840000D03*
X77050000Y-38900000D03*
D29*
X54770000Y-46355000D03*
X54770000Y-45085000D03*
X54770000Y-43815000D03*
X54770000Y-42545000D03*
X49370000Y-42545000D03*
X49370000Y-43815000D03*
X49370000Y-45085000D03*
X49370000Y-46355000D03*
X46195000Y-24130000D03*
X46195000Y-25400000D03*
X46195000Y-26670000D03*
X46195000Y-27940000D03*
X51595000Y-27940000D03*
X51595000Y-26670000D03*
X51595000Y-25400000D03*
X51595000Y-24130000D03*
X69690000Y-26035000D03*
X69690000Y-27305000D03*
X69690000Y-28575000D03*
X69690000Y-29845000D03*
X75090000Y-29845000D03*
X75090000Y-28575000D03*
X75090000Y-27305000D03*
X75090000Y-26035000D03*
X93185000Y-26035000D03*
X93185000Y-27305000D03*
X93185000Y-28575000D03*
X93185000Y-29845000D03*
X98585000Y-29845000D03*
X98585000Y-28575000D03*
X98585000Y-27305000D03*
X98585000Y-26035000D03*
D30*
X33020000Y-50800000D03*
D31*
X38100000Y-50800000D03*
X43180000Y-50800000D03*
D32*
X114365000Y-38130000D03*
X114365000Y-37480000D03*
X114365000Y-36830000D03*
X114365000Y-36180000D03*
X114365000Y-35530000D03*
D33*
X114865000Y-34930000D03*
X114865000Y-38730000D03*
D34*
X117215000Y-32830000D03*
X117215000Y-35680000D03*
X117215000Y-37980000D03*
X117215000Y-40830000D03*
D12*
X72390000Y-22098000D03*
D13*
X69850000Y-22098000D03*
D12*
X95885000Y-22225000D03*
D13*
X93345000Y-22225000D03*
D12*
X107569000Y-22352000D03*
D13*
X105029000Y-22352000D03*
D14*
X114935000Y-22860000D03*
D35*
X38417500Y-45148500D03*
X44386500Y-42608500D03*
D36*
X38544500Y-43040300D03*
X44259500Y-44716700D03*
D37*
X106045000Y-38100000D03*
D38*
X111125000Y-38100000D03*
M02*
